<svg xmlns="http://www.w3.org/2000/svg" width="2280" height="1000"><path d="M-255,1370L-884,3397L959,2319Z" fill="rgb(37,63,75)" stroke="rgb(37,63,75)" stroke-width="1.51"/><path d="M-255,1370L-2850,1477L-884,3397Z" fill="rgb(37,63,75)" stroke="rgb(37,63,75)" stroke-width="1.51"/><path d="M-2850,1477L-3198,2232L-884,3397Z" fill="rgb(37,63,75)" stroke="rgb(37,63,75)" stroke-width="1.51"/><path d="M-255,1370L-1471,-297L-2850,1477Z" fill="rgb(37,61,73)" stroke="rgb(37,61,73)" stroke-width="1.51"/><path d="M424,-1291L-1471,-297L-255,1370Z" fill="rgb(36,54,63)" stroke="rgb(36,54,63)" stroke-width="1.51"/><path d="M-884,3397L736,5538L959,2319Z" fill="rgb(37,64,77)" stroke="rgb(37,64,77)" stroke-width="1.51"/><path d="M-2597,7792L736,5538L-884,3397Z" fill="rgb(37,63,75)" stroke="rgb(37,63,75)" stroke-width="1.51"/><path d="M-3198,2232L-3607,2579L-884,3397Z" fill="rgb(37,63,75)" stroke="rgb(37,63,75)" stroke-width="1.51"/><path d="M-3920,477L-3607,2579L-3198,2232Z" fill="rgb(37,63,75)" stroke="rgb(37,63,75)" stroke-width="1.51"/><path d="M959,2319L2096,-724L-255,1370Z" fill="rgb(38,66,80)" stroke="rgb(38,66,80)" stroke-width="1.51"/><path d="M3406,1024L3164,822L959,2319Z" fill="rgb(38,72,88)" stroke="rgb(38,72,88)" stroke-width="1.51"/><path d="M736,5538L1918,5656L959,2319Z" fill="rgb(38,67,82)" stroke="rgb(38,67,82)" stroke-width="1.51"/><path d="M2096,-724L424,-1291L-255,1370Z" fill="rgb(37,57,67)" stroke="rgb(37,57,67)" stroke-width="1.51"/><path d="M3855,2071L3406,1024L959,2319Z" fill="rgb(38,72,88)" stroke="rgb(38,72,88)" stroke-width="1.51"/><path d="M3164,822L2096,-724L959,2319Z" fill="rgb(38,69,84)" stroke="rgb(38,69,84)" stroke-width="1.51"/><path d="M2977,25L2096,-724L3164,822Z" fill="rgb(37,63,76)" stroke="rgb(37,63,76)" stroke-width="1.51"/><path d="M3406,1024L2977,25L3164,822Z" fill="rgb(38,68,83)" stroke="rgb(38,68,83)" stroke-width="1.51"/><path d="M4118,3282L3855,2071L959,2319Z" fill="rgb(38,72,88)" stroke="rgb(38,72,88)" stroke-width="1.51"/><path d="M-1471,-297L-3920,477L-2850,1477Z" fill="rgb(37,59,70)" stroke="rgb(37,59,70)" stroke-width="1.51"/><path d="M-2850,1477L-3920,477L-3198,2232Z" fill="rgb(37,63,75)" stroke="rgb(37,63,75)" stroke-width="1.51"/><path d="M-3245,-1325L-3920,477L-1471,-297Z" fill="rgb(36,54,63)" stroke="rgb(36,54,63)" stroke-width="1.51"/><path d="M3855,2071L4090,2158L3406,1024Z" fill="rgb(38,72,88)" stroke="rgb(38,72,88)" stroke-width="1.51"/><path d="M6161,-1889L4241,-2648L2977,25Z" fill="rgb(37,63,75)" stroke="rgb(37,63,75)" stroke-width="1.51"/><path d="M4118,3282L4090,2158L3855,2071Z" fill="rgb(38,72,88)" stroke="rgb(38,72,88)" stroke-width="1.51"/><path d="M4090,2158L4121,2166L3406,1024Z" fill="rgb(38,72,88)" stroke="rgb(38,72,88)" stroke-width="1.51"/><path d="M4118,3282L4121,2166L4090,2158Z" fill="rgb(38,72,88)" stroke="rgb(38,72,88)" stroke-width="1.51"/><path d="M1918,5656L4118,3282L959,2319Z" fill="rgb(38,72,88)" stroke="rgb(38,72,88)" stroke-width="1.51"/><path d="M-3607,2579L-4040,4751L-884,3397Z" fill="rgb(37,63,75)" stroke="rgb(37,63,75)" stroke-width="1.51"/><path d="M-8782,4400L-4040,4751L-3607,2579Z" fill="rgb(37,63,75)" stroke="rgb(37,63,75)" stroke-width="1.51"/><path d="M-3081,-1584L-3245,-1325L-1471,-297Z" fill="rgb(36,54,63)" stroke="rgb(36,54,63)" stroke-width="1.51"/><path d="M2096,-724L1031,-1949L424,-1291Z" fill="rgb(37,58,69)" stroke="rgb(37,58,69)" stroke-width="1.51"/><path d="M1343,-3605L1031,-1949L4241,-2648Z" fill="rgb(37,62,75)" stroke="rgb(37,62,75)" stroke-width="1.51"/><path d="M1918,5656L4076,4966L4118,3282Z" fill="rgb(38,72,88)" stroke="rgb(38,72,88)" stroke-width="1.51"/><path d="M-3081,-1584L-1471,-297L-1175,-2941Z" fill="rgb(36,54,63)" stroke="rgb(36,54,63)" stroke-width="1.51"/><path d="M-1175,-2941L-1471,-297L424,-1291Z" fill="rgb(36,54,63)" stroke="rgb(36,54,63)" stroke-width="1.51"/><path d="M1918,5656L4388,5636L4076,4966Z" fill="rgb(38,72,88)" stroke="rgb(38,72,88)" stroke-width="1.51"/><path d="M4076,4966L4388,5636L4118,3282Z" fill="rgb(38,72,88)" stroke="rgb(38,72,88)" stroke-width="1.51"/><path d="M9912,1333L6161,-1889L4121,2166Z" fill="rgb(38,68,82)" stroke="rgb(38,68,82)" stroke-width="1.51"/><path d="M1031,-1949L-1175,-2941L424,-1291Z" fill="rgb(36,54,63)" stroke="rgb(36,54,63)" stroke-width="1.51"/><path d="M-4040,4751L-2597,7792L-884,3397Z" fill="rgb(37,63,75)" stroke="rgb(37,63,75)" stroke-width="1.51"/><path d="M624,10062L3637,7321L1918,5656Z" fill="rgb(38,71,87)" stroke="rgb(38,71,87)" stroke-width="1.51"/><path d="M1918,5656L3637,7321L4388,5636Z" fill="rgb(38,72,88)" stroke="rgb(38,72,88)" stroke-width="1.51"/><path d="M624,10062L1918,5656L736,5538Z" fill="rgb(38,67,81)" stroke="rgb(38,67,81)" stroke-width="1.51"/><path d="M1031,-1949L1343,-3605L-1175,-2941Z" fill="rgb(37,55,65)" stroke="rgb(37,55,65)" stroke-width="1.51"/><path d="M4241,-2648L1031,-1949L2096,-724Z" fill="rgb(37,63,75)" stroke="rgb(37,63,75)" stroke-width="1.51"/><path d="M4241,-2648L2096,-724L2977,25Z" fill="rgb(37,63,75)" stroke="rgb(37,63,75)" stroke-width="1.51"/><path d="M-2597,7792L-1711,8946L736,5538Z" fill="rgb(37,63,75)" stroke="rgb(37,63,75)" stroke-width="1.51"/><path d="M-3081,-1584L-5647,-1227L-3245,-1325Z" fill="rgb(36,54,63)" stroke="rgb(36,54,63)" stroke-width="1.51"/><path d="M-3245,-1325L-5647,-1227L-3920,477Z" fill="rgb(36,54,63)" stroke="rgb(36,54,63)" stroke-width="1.51"/><path d="M-3920,477L-8614,489L-3607,2579Z" fill="rgb(37,63,75)" stroke="rgb(37,63,75)" stroke-width="1.51"/><path d="M-2976,-4009L-5647,-1227L-3081,-1584Z" fill="rgb(36,54,63)" stroke="rgb(36,54,63)" stroke-width="1.51"/><path d="M-1175,-2941L-2976,-4009L-3081,-1584Z" fill="rgb(36,54,63)" stroke="rgb(36,54,63)" stroke-width="1.51"/><path d="M1343,-3605L-1522,-4071L-1175,-2941Z" fill="rgb(36,54,63)" stroke="rgb(36,54,63)" stroke-width="1.51"/><path d="M-1711,8946L-1406,9165L736,5538Z" fill="rgb(37,63,75)" stroke="rgb(37,63,75)" stroke-width="1.51"/><path d="M6161,-1889L2977,25L3406,1024Z" fill="rgb(37,63,75)" stroke="rgb(37,63,75)" stroke-width="1.51"/><path d="M6161,-1889L3406,1024L4121,2166Z" fill="rgb(38,67,81)" stroke="rgb(38,67,81)" stroke-width="1.51"/><path d="M-4040,4751L-4276,7995L-2597,7792Z" fill="rgb(37,63,75)" stroke="rgb(37,63,75)" stroke-width="1.51"/><path d="M-2597,7792L-4051,8462L-1711,8946Z" fill="rgb(37,63,75)" stroke="rgb(37,63,75)" stroke-width="1.51"/><path d="M-1711,8946L-2683,11174L-1406,9165Z" fill="rgb(37,63,75)" stroke="rgb(37,63,75)" stroke-width="1.51"/><path d="M-8237,8445L-4276,7995L-4040,4751Z" fill="rgb(37,63,75)" stroke="rgb(37,63,75)" stroke-width="1.51"/><path d="M-1522,-4071L-2976,-4009L-1175,-2941Z" fill="rgb(36,54,63)" stroke="rgb(36,54,63)" stroke-width="1.51"/><path d="M-4276,7995L-4051,8462L-2597,7792Z" fill="rgb(37,63,75)" stroke="rgb(37,63,75)" stroke-width="1.51"/><path d="M1678,10204L4425,8475L3637,7321Z" fill="rgb(38,72,88)" stroke="rgb(38,72,88)" stroke-width="1.51"/><path d="M3637,7321L4425,8475L4388,5636Z" fill="rgb(38,72,88)" stroke="rgb(38,72,88)" stroke-width="1.51"/><path d="M-1406,9165L624,10062L736,5538Z" fill="rgb(37,63,75)" stroke="rgb(37,63,75)" stroke-width="1.51"/><path d="M-2683,11174L624,10062L-1406,9165Z" fill="rgb(37,63,75)" stroke="rgb(37,63,75)" stroke-width="1.51"/><path d="M6957,-2962L6161,-1889L10427,-562Z" fill="rgb(37,63,75)" stroke="rgb(37,63,75)" stroke-width="1.51"/><path d="M9823,3584L4121,2166L4118,3282Z" fill="rgb(38,72,88)" stroke="rgb(38,72,88)" stroke-width="1.51"/><path d="M624,10062L1678,10204L3637,7321Z" fill="rgb(38,71,86)" stroke="rgb(38,71,86)" stroke-width="1.51"/><path d="M83,-6774L-2535,-5788L-1522,-4071Z" fill="rgb(36,54,63)" stroke="rgb(36,54,63)" stroke-width="1.51"/><path d="M-2535,-5788L-3510,-4962L-2976,-4009Z" fill="rgb(36,54,63)" stroke="rgb(36,54,63)" stroke-width="1.51"/><path d="M4241,-2648L3320,-4864L1343,-3605Z" fill="rgb(37,63,75)" stroke="rgb(37,63,75)" stroke-width="1.51"/><path d="M3630,-5104L3320,-4864L4241,-2648Z" fill="rgb(37,63,75)" stroke="rgb(37,63,75)" stroke-width="1.51"/><path d="M-2535,-5788L-2976,-4009L-1522,-4071Z" fill="rgb(36,54,63)" stroke="rgb(36,54,63)" stroke-width="1.51"/><path d="M-2976,-4009L-5939,-4266L-5647,-1227Z" fill="rgb(36,54,63)" stroke="rgb(36,54,63)" stroke-width="1.51"/><path d="M83,-6774L-1522,-4071L1343,-3605Z" fill="rgb(36,54,63)" stroke="rgb(36,54,63)" stroke-width="1.51"/><path d="M7027,-4717L3630,-5104L4241,-2648Z" fill="rgb(37,63,75)" stroke="rgb(37,63,75)" stroke-width="1.51"/><path d="M83,-6774L1343,-3605L3320,-4864Z" fill="rgb(37,60,71)" stroke="rgb(37,60,71)" stroke-width="1.51"/><path d="M-5647,-1227L-8614,489L-3920,477Z" fill="rgb(36,54,63)" stroke="rgb(36,54,63)" stroke-width="1.51"/><path d="M-4276,7995L-5479,11235L-4051,8462Z" fill="rgb(37,63,75)" stroke="rgb(37,63,75)" stroke-width="1.51"/><path d="M-8715,-705L-8614,489L-5647,-1227Z" fill="rgb(36,54,63)" stroke="rgb(36,54,63)" stroke-width="1.51"/><path d="M-8614,489L-8782,4400L-3607,2579Z" fill="rgb(37,63,75)" stroke="rgb(37,63,75)" stroke-width="1.51"/><path d="M-3510,-4962L-5939,-4266L-2976,-4009Z" fill="rgb(36,54,63)" stroke="rgb(36,54,63)" stroke-width="1.51"/><path d="M-4524,-6035L-5939,-4266L-3510,-4962Z" fill="rgb(36,54,63)" stroke="rgb(36,54,63)" stroke-width="1.51"/><path d="M6161,-1889L6957,-2962L4241,-2648Z" fill="rgb(37,63,75)" stroke="rgb(37,63,75)" stroke-width="1.51"/><path d="M9261,5070L4118,3282L4388,5636Z" fill="rgb(38,72,88)" stroke="rgb(38,72,88)" stroke-width="1.51"/><path d="M-4051,8462L-2683,11174L-1711,8946Z" fill="rgb(37,63,75)" stroke="rgb(37,63,75)" stroke-width="1.51"/><path d="M624,10062L-2683,11174L1678,10204Z" fill="rgb(37,63,75)" stroke="rgb(37,63,75)" stroke-width="1.51"/><path d="M-5479,11235L-2683,11174L-4051,8462Z" fill="rgb(37,63,75)" stroke="rgb(37,63,75)" stroke-width="1.51"/><path d="M-8614,489L-11445,2379L-8782,4400Z" fill="rgb(37,63,75)" stroke="rgb(37,63,75)" stroke-width="1.51"/><path d="M-7152,-4473L-8715,-705L-5647,-1227Z" fill="rgb(36,54,63)" stroke="rgb(36,54,63)" stroke-width="1.51"/><path d="M3630,-5104L3529,-6001L3320,-4864Z" fill="rgb(37,63,75)" stroke="rgb(37,63,75)" stroke-width="1.51"/><path d="M7027,-4717L3529,-6001L3630,-5104Z" fill="rgb(37,63,75)" stroke="rgb(37,63,75)" stroke-width="1.51"/><path d="M3529,-6001L83,-6774L3320,-4864Z" fill="rgb(37,63,75)" stroke="rgb(37,63,75)" stroke-width="1.51"/><path d="M-2754,-7273L-4524,-6035L-2535,-5788Z" fill="rgb(36,54,63)" stroke="rgb(36,54,63)" stroke-width="1.51"/><path d="M-2535,-5788L-4524,-6035L-3510,-4962Z" fill="rgb(36,54,63)" stroke="rgb(36,54,63)" stroke-width="1.51"/><path d="M8064,8205L9261,5070L4388,5636Z" fill="rgb(38,72,88)" stroke="rgb(38,72,88)" stroke-width="1.51"/><path d="M83,-6774L-1821,-7166L-2535,-5788Z" fill="rgb(36,54,63)" stroke="rgb(36,54,63)" stroke-width="1.51"/><path d="M-6715,-5623L-7152,-4473L-5939,-4266Z" fill="rgb(36,54,63)" stroke="rgb(36,54,63)" stroke-width="1.51"/><path d="M-5939,-4266L-7152,-4473L-5647,-1227Z" fill="rgb(36,54,63)" stroke="rgb(36,54,63)" stroke-width="1.51"/><path d="M4425,8475L8064,8205L4388,5636Z" fill="rgb(38,72,88)" stroke="rgb(38,72,88)" stroke-width="1.51"/><path d="M7366,11101L8064,8205L4425,8475Z" fill="rgb(38,72,88)" stroke="rgb(38,72,88)" stroke-width="1.51"/><path d="M-8782,4400L-8237,8445L-4040,4751Z" fill="rgb(37,63,75)" stroke="rgb(37,63,75)" stroke-width="1.51"/><path d="M9261,5070L9823,3584L4118,3282Z" fill="rgb(38,72,88)" stroke="rgb(38,72,88)" stroke-width="1.51"/><path d="M-1821,-7166L-2754,-7273L-2535,-5788Z" fill="rgb(36,54,63)" stroke="rgb(36,54,63)" stroke-width="1.51"/><path d="M-5700,-6358L-6715,-5623L-5939,-4266Z" fill="rgb(36,54,63)" stroke="rgb(36,54,63)" stroke-width="1.51"/><path d="M9823,3584L9912,1333L4121,2166Z" fill="rgb(38,72,88)" stroke="rgb(38,72,88)" stroke-width="1.51"/><path d="M6957,-2962L7027,-4717L4241,-2648Z" fill="rgb(37,63,75)" stroke="rgb(37,63,75)" stroke-width="1.51"/><path d="M8168,-4914L7027,-4717L6957,-2962Z" fill="rgb(37,63,75)" stroke="rgb(37,63,75)" stroke-width="1.51"/><path d="M-8237,8445L-5479,11235L-4276,7995Z" fill="rgb(37,63,75)" stroke="rgb(37,63,75)" stroke-width="1.51"/><path d="M9912,1333L10427,-562L6161,-1889Z" fill="rgb(37,63,75)" stroke="rgb(37,63,75)" stroke-width="1.51"/><path d="M11005,2652L10114,1047L9912,1333Z" fill="rgb(38,72,88)" stroke="rgb(38,72,88)" stroke-width="1.51"/><path d="M9823,3584L11005,2652L9912,1333Z" fill="rgb(38,72,88)" stroke="rgb(38,72,88)" stroke-width="1.51"/><path d="M9261,5070L10698,5027L9823,3584Z" fill="rgb(38,72,88)" stroke="rgb(38,72,88)" stroke-width="1.51"/><path d="M8064,8205L9773,5687L9261,5070Z" fill="rgb(38,72,88)" stroke="rgb(38,72,88)" stroke-width="1.51"/><path d="M-5700,-6358L-5939,-4266L-4524,-6035Z" fill="rgb(36,54,63)" stroke="rgb(36,54,63)" stroke-width="1.51"/><path d="M-9978,-4015L-10249,-3583L-8715,-705Z" fill="rgb(36,54,63)" stroke="rgb(36,54,63)" stroke-width="1.51"/><path d="M-4351,12125L4692,11756L-2683,11174Z" fill="rgb(37,63,75)" stroke="rgb(37,63,75)" stroke-width="1.51"/><path d="M-2683,11174L4692,11756L1678,10204Z" fill="rgb(38,68,82)" stroke="rgb(38,68,82)" stroke-width="1.51"/><path d="M1678,10204L4692,11756L4425,8475Z" fill="rgb(38,72,88)" stroke="rgb(38,72,88)" stroke-width="1.51"/><path d="M-5575,-8361L-5700,-6358L-4524,-6035Z" fill="rgb(36,54,63)" stroke="rgb(36,54,63)" stroke-width="1.51"/><path d="M-5479,11235L-4351,12125L-2683,11174Z" fill="rgb(37,63,75)" stroke="rgb(37,63,75)" stroke-width="1.51"/><path d="M607,-9087L-2193,-8385L-1821,-7166Z" fill="rgb(36,54,63)" stroke="rgb(36,54,63)" stroke-width="1.51"/><path d="M-1821,-7166L-2193,-8385L-2754,-7273Z" fill="rgb(36,54,63)" stroke="rgb(36,54,63)" stroke-width="1.51"/><path d="M3529,-6001L3310,-7443L83,-6774Z" fill="rgb(37,63,75)" stroke="rgb(37,63,75)" stroke-width="1.51"/><path d="M6102,-8132L3310,-7443L3529,-6001Z" fill="rgb(37,63,75)" stroke="rgb(37,63,75)" stroke-width="1.51"/><path d="M4692,11756L4937,11821L4425,8475Z" fill="rgb(38,72,88)" stroke="rgb(38,72,88)" stroke-width="1.51"/><path d="M-4351,12125L4937,11821L4692,11756Z" fill="rgb(38,70,85)" stroke="rgb(38,70,85)" stroke-width="1.51"/><path d="M-5479,11235L-6220,11601L-4351,12125Z" fill="rgb(37,63,75)" stroke="rgb(37,63,75)" stroke-width="1.51"/><path d="M-8515,10304L-6220,11601L-5479,11235Z" fill="rgb(37,63,75)" stroke="rgb(37,63,75)" stroke-width="1.51"/><path d="M10114,1047L10427,-562L9912,1333Z" fill="rgb(38,68,83)" stroke="rgb(38,68,83)" stroke-width="1.51"/><path d="M11073,-666L10427,-562L10114,1047Z" fill="rgb(37,63,75)" stroke="rgb(37,63,75)" stroke-width="1.51"/><path d="M-2754,-7273L-3439,-8293L-4524,-6035Z" fill="rgb(36,54,63)" stroke="rgb(36,54,63)" stroke-width="1.51"/><path d="M607,-9087L-1821,-7166L83,-6774Z" fill="rgb(36,54,63)" stroke="rgb(36,54,63)" stroke-width="1.51"/><path d="M-8237,8445L-8515,10304L-5479,11235Z" fill="rgb(37,63,75)" stroke="rgb(37,63,75)" stroke-width="1.51"/><path d="M-11461,9635L-8804,9472L-8237,8445Z" fill="rgb(37,63,75)" stroke="rgb(37,63,75)" stroke-width="1.51"/><path d="M9773,5687L10698,5027L9261,5070Z" fill="rgb(38,72,88)" stroke="rgb(38,72,88)" stroke-width="1.51"/><path d="M12029,8979L10698,5027L9773,5687Z" fill="rgb(38,72,88)" stroke="rgb(38,72,88)" stroke-width="1.51"/><path d="M7027,-4717L6102,-8132L3529,-6001Z" fill="rgb(37,63,75)" stroke="rgb(37,63,75)" stroke-width="1.51"/><path d="M9066,-3776L8168,-4914L6957,-2962Z" fill="rgb(37,63,75)" stroke="rgb(37,63,75)" stroke-width="1.51"/><path d="M10427,-562L9066,-3776L6957,-2962Z" fill="rgb(37,63,75)" stroke="rgb(37,63,75)" stroke-width="1.51"/><path d="M10698,5027L11005,2652L9823,3584Z" fill="rgb(38,72,88)" stroke="rgb(38,72,88)" stroke-width="1.51"/><path d="M-5700,-6358L-7641,-5916L-6715,-5623Z" fill="rgb(36,54,63)" stroke="rgb(36,54,63)" stroke-width="1.51"/><path d="M-6715,-5623L-7641,-5916L-7152,-4473Z" fill="rgb(36,54,63)" stroke="rgb(36,54,63)" stroke-width="1.51"/><path d="M-5575,-8361L-7641,-5916L-5700,-6358Z" fill="rgb(36,54,63)" stroke="rgb(36,54,63)" stroke-width="1.51"/><path d="M-8715,-705L-11445,2379L-8614,489Z" fill="rgb(37,60,72)" stroke="rgb(37,60,72)" stroke-width="1.51"/><path d="M-8782,4400L-11461,9635L-8237,8445Z" fill="rgb(37,63,75)" stroke="rgb(37,63,75)" stroke-width="1.51"/><path d="M-11217,-2294L-11445,2379L-8715,-705Z" fill="rgb(36,54,63)" stroke="rgb(36,54,63)" stroke-width="1.51"/><path d="M-2193,-8385L-3439,-8293L-2754,-7273Z" fill="rgb(36,54,63)" stroke="rgb(36,54,63)" stroke-width="1.51"/><path d="M8064,8205L12029,8979L9773,5687Z" fill="rgb(38,72,88)" stroke="rgb(38,72,88)" stroke-width="1.51"/><path d="M4937,11821L6541,11682L4425,8475Z" fill="rgb(38,72,88)" stroke="rgb(38,72,88)" stroke-width="1.51"/><path d="M-8804,9472L-8515,10304L-8237,8445Z" fill="rgb(37,63,75)" stroke="rgb(37,63,75)" stroke-width="1.51"/><path d="M-8947,10238L-8515,10304L-8804,9472Z" fill="rgb(37,63,75)" stroke="rgb(37,63,75)" stroke-width="1.51"/><path d="M6541,11682L7366,11101L4425,8475Z" fill="rgb(38,72,88)" stroke="rgb(38,72,88)" stroke-width="1.51"/><path d="M9066,-3776L9178,-4087L8168,-4914Z" fill="rgb(37,63,75)" stroke="rgb(37,63,75)" stroke-width="1.51"/><path d="M10747,-3261L9178,-4087L9066,-3776Z" fill="rgb(37,63,75)" stroke="rgb(37,63,75)" stroke-width="1.51"/><path d="M3310,-7443L771,-9056L83,-6774Z" fill="rgb(37,59,70)" stroke="rgb(37,59,70)" stroke-width="1.51"/><path d="M-2193,-8385L-3051,-10146L-3439,-8293Z" fill="rgb(36,54,63)" stroke="rgb(36,54,63)" stroke-width="1.51"/><path d="M1895,-10214L771,-9056L3310,-7443Z" fill="rgb(37,62,74)" stroke="rgb(37,62,74)" stroke-width="1.51"/><path d="M771,-9056L607,-9087L83,-6774Z" fill="rgb(37,56,65)" stroke="rgb(37,56,65)" stroke-width="1.51"/><path d="M10427,-562L10747,-3261L9066,-3776Z" fill="rgb(37,63,75)" stroke="rgb(37,63,75)" stroke-width="1.51"/><path d="M12289,2102L11073,-666L10114,1047Z" fill="rgb(38,70,86)" stroke="rgb(38,70,86)" stroke-width="1.51"/><path d="M-8515,10304L-9475,11448L-6220,11601Z" fill="rgb(37,63,75)" stroke="rgb(37,63,75)" stroke-width="1.51"/><path d="M-9475,11448L-8947,10238L-11461,9635Z" fill="rgb(37,63,75)" stroke="rgb(37,63,75)" stroke-width="1.51"/><path d="M-9978,-4015L-8715,-705L-7152,-4473Z" fill="rgb(36,54,63)" stroke="rgb(36,54,63)" stroke-width="1.51"/><path d="M-7641,-5916L-9978,-4015L-7152,-4473Z" fill="rgb(36,54,63)" stroke="rgb(36,54,63)" stroke-width="1.51"/><path d="M6541,11682L7875,11246L7366,11101Z" fill="rgb(38,72,88)" stroke="rgb(38,72,88)" stroke-width="1.51"/><path d="M7366,11101L7875,11246L8064,8205Z" fill="rgb(38,72,88)" stroke="rgb(38,72,88)" stroke-width="1.51"/><path d="M-11502,-8374L-11217,-2294L-10249,-3583Z" fill="rgb(36,54,63)" stroke="rgb(36,54,63)" stroke-width="1.51"/><path d="M-10249,-3583L-11217,-2294L-8715,-705Z" fill="rgb(36,54,63)" stroke="rgb(36,54,63)" stroke-width="1.51"/><path d="M-5073,-10093L-5575,-8361L-3439,-8293Z" fill="rgb(36,54,63)" stroke="rgb(36,54,63)" stroke-width="1.51"/><path d="M-3439,-8293L-5575,-8361L-4524,-6035Z" fill="rgb(36,54,63)" stroke="rgb(36,54,63)" stroke-width="1.51"/><path d="M-7641,-5916L-8750,-7206L-9978,-4015Z" fill="rgb(36,54,63)" stroke="rgb(36,54,63)" stroke-width="1.51"/><path d="M11073,-666L10747,-3261L10427,-562Z" fill="rgb(37,63,75)" stroke="rgb(37,63,75)" stroke-width="1.51"/><path d="M9178,-4087L11532,-7018L8168,-4914Z" fill="rgb(37,63,75)" stroke="rgb(37,63,75)" stroke-width="1.51"/><path d="M11532,-7018L6102,-8132L8168,-4914Z" fill="rgb(37,63,75)" stroke="rgb(37,63,75)" stroke-width="1.51"/><path d="M8168,-4914L6102,-8132L7027,-4717Z" fill="rgb(37,63,75)" stroke="rgb(37,63,75)" stroke-width="1.51"/><path d="M1895,-10214L-696,-10327L607,-9087Z" fill="rgb(37,56,66)" stroke="rgb(37,56,66)" stroke-width="1.51"/><path d="M11073,-666L12410,-771L10747,-3261Z" fill="rgb(37,63,75)" stroke="rgb(37,63,75)" stroke-width="1.51"/><path d="M11005,2652L12289,2102L10114,1047Z" fill="rgb(38,72,88)" stroke="rgb(38,72,88)" stroke-width="1.51"/><path d="M10698,5027L12275,2270L11005,2652Z" fill="rgb(38,72,88)" stroke="rgb(38,72,88)" stroke-width="1.51"/><path d="M14012,2708L12275,2270L10698,5027Z" fill="rgb(38,72,88)" stroke="rgb(38,72,88)" stroke-width="1.51"/><path d="M12275,2270L12289,2102L11005,2652Z" fill="rgb(38,72,88)" stroke="rgb(38,72,88)" stroke-width="1.51"/><path d="M1895,-10214L607,-9087L771,-9056Z" fill="rgb(37,58,69)" stroke="rgb(37,58,69)" stroke-width="1.51"/><path d="M607,-9087L-696,-10327L-2193,-8385Z" fill="rgb(36,54,63)" stroke="rgb(36,54,63)" stroke-width="1.51"/><path d="M3870,-10066L1895,-10214L3310,-7443Z" fill="rgb(37,63,75)" stroke="rgb(37,63,75)" stroke-width="1.51"/><path d="M-8947,10238L-9475,11448L-8515,10304Z" fill="rgb(37,63,75)" stroke="rgb(37,63,75)" stroke-width="1.51"/><path d="M-6220,11601L-9759,12624L-4351,12125Z" fill="rgb(37,63,75)" stroke="rgb(37,63,75)" stroke-width="1.51"/><path d="M-11461,9635L-8947,10238L-8804,9472Z" fill="rgb(37,63,75)" stroke="rgb(37,63,75)" stroke-width="1.51"/><path d="M-9978,-4015L-11502,-8374L-10249,-3583Z" fill="rgb(36,54,63)" stroke="rgb(36,54,63)" stroke-width="1.51"/><path d="M-6796,-9168L-8750,-7206L-7641,-5916Z" fill="rgb(36,54,63)" stroke="rgb(36,54,63)" stroke-width="1.51"/><path d="M-6796,-9168L-7641,-5916L-5575,-8361Z" fill="rgb(36,54,63)" stroke="rgb(36,54,63)" stroke-width="1.51"/><path d="M6102,-8132L4824,-9474L3310,-7443Z" fill="rgb(37,63,75)" stroke="rgb(37,63,75)" stroke-width="1.51"/><path d="M7676,-10924L5701,-9065L6102,-8132Z" fill="rgb(37,63,75)" stroke="rgb(37,63,75)" stroke-width="1.51"/><path d="M-696,-10327L-3051,-10146L-2193,-8385Z" fill="rgb(36,54,63)" stroke="rgb(36,54,63)" stroke-width="1.51"/><path d="M5701,-9065L4824,-9474L6102,-8132Z" fill="rgb(37,63,75)" stroke="rgb(37,63,75)" stroke-width="1.51"/><path d="M12289,2102L12410,-771L11073,-666Z" fill="rgb(38,65,78)" stroke="rgb(38,65,78)" stroke-width="1.51"/><path d="M4824,-9474L3870,-10066L3310,-7443Z" fill="rgb(37,63,75)" stroke="rgb(37,63,75)" stroke-width="1.51"/><path d="M3039,-12174L3870,-10066L7676,-10924Z" fill="rgb(37,63,75)" stroke="rgb(37,63,75)" stroke-width="1.51"/><path d="M-13017,9010L-11461,9635L-8782,4400Z" fill="rgb(37,63,75)" stroke="rgb(37,63,75)" stroke-width="1.51"/><path d="M-5073,-10093L-6796,-9168L-5575,-8361Z" fill="rgb(36,54,63)" stroke="rgb(36,54,63)" stroke-width="1.51"/><path d="M-3051,-10146L-5073,-10093L-3439,-8293Z" fill="rgb(36,54,63)" stroke="rgb(36,54,63)" stroke-width="1.51"/><path d="M-3787,-11318L-5073,-10093L-3051,-10146Z" fill="rgb(36,54,63)" stroke="rgb(36,54,63)" stroke-width="1.51"/><path d="M-696,-10327L-1751,-11006L-3051,-10146Z" fill="rgb(36,54,63)" stroke="rgb(36,54,63)" stroke-width="1.51"/><path d="M3039,-12174L-1751,-11006L-696,-10327Z" fill="rgb(36,55,64)" stroke="rgb(36,55,64)" stroke-width="1.51"/><path d="M3039,-12174L-696,-10327L1895,-10214Z" fill="rgb(37,59,70)" stroke="rgb(37,59,70)" stroke-width="1.51"/><path d="M7875,11246L12029,8979L8064,8205Z" fill="rgb(38,72,88)" stroke="rgb(38,72,88)" stroke-width="1.51"/><path d="M12275,2270L14012,2708L12289,2102Z" fill="rgb(38,72,88)" stroke="rgb(38,72,88)" stroke-width="1.51"/><path d="M12289,2102L14456,61L12410,-771Z" fill="rgb(38,67,81)" stroke="rgb(38,67,81)" stroke-width="1.51"/><path d="M-10104,12845L-9759,12624L-9475,11448Z" fill="rgb(37,63,75)" stroke="rgb(37,63,75)" stroke-width="1.51"/><path d="M-9475,11448L-9759,12624L-6220,11601Z" fill="rgb(37,63,75)" stroke="rgb(37,63,75)" stroke-width="1.51"/><path d="M-4351,12125L12812,13755L4937,11821Z" fill="rgb(38,72,88)" stroke="rgb(38,72,88)" stroke-width="1.51"/><path d="M12029,8979L14012,2708L10698,5027Z" fill="rgb(38,72,88)" stroke="rgb(38,72,88)" stroke-width="1.51"/><path d="M-1751,-11006L-3787,-11318L-3051,-10146Z" fill="rgb(36,54,63)" stroke="rgb(36,54,63)" stroke-width="1.51"/><path d="M-5073,-10093L-7443,-10589L-6796,-9168Z" fill="rgb(36,54,63)" stroke="rgb(36,54,63)" stroke-width="1.51"/><path d="M-11461,9635L-10104,12845L-9475,11448Z" fill="rgb(37,63,75)" stroke="rgb(37,63,75)" stroke-width="1.51"/><path d="M-9759,12624L-10104,12845L-4351,12125Z" fill="rgb(37,63,75)" stroke="rgb(37,63,75)" stroke-width="1.51"/><path d="M-11461,9635L-13017,9010L-10104,12845Z" fill="rgb(37,63,75)" stroke="rgb(37,63,75)" stroke-width="1.51"/><path d="M-11445,2379L-13017,9010L-8782,4400Z" fill="rgb(37,63,75)" stroke="rgb(37,63,75)" stroke-width="1.51"/><path d="M-11217,-2294L-13017,9010L-11445,2379Z" fill="rgb(37,63,75)" stroke="rgb(37,63,75)" stroke-width="1.51"/><path d="M14012,2708L14456,61L12289,2102Z" fill="rgb(38,72,88)" stroke="rgb(38,72,88)" stroke-width="1.51"/><path d="M12410,-771L13954,-2330L10747,-3261Z" fill="rgb(37,63,75)" stroke="rgb(37,63,75)" stroke-width="1.51"/><path d="M10747,-3261L11532,-7018L9178,-4087Z" fill="rgb(37,63,75)" stroke="rgb(37,63,75)" stroke-width="1.51"/><path d="M14456,61L13954,-2330L12410,-771Z" fill="rgb(37,63,75)" stroke="rgb(37,63,75)" stroke-width="1.51"/><path d="M-6796,-9168L-7443,-10589L-8750,-7206Z" fill="rgb(36,54,63)" stroke="rgb(36,54,63)" stroke-width="1.51"/><path d="M-8750,-7206L-11502,-8374L-9978,-4015Z" fill="rgb(36,54,63)" stroke="rgb(36,54,63)" stroke-width="1.51"/><path d="M-7194,-11219L-7443,-10589L-5073,-10093Z" fill="rgb(36,54,63)" stroke="rgb(36,54,63)" stroke-width="1.51"/><path d="M3870,-10066L3039,-12174L1895,-10214Z" fill="rgb(37,63,75)" stroke="rgb(37,63,75)" stroke-width="1.51"/><path d="M-1751,-11006L-3326,-12910L-3787,-11318Z" fill="rgb(36,54,63)" stroke="rgb(36,54,63)" stroke-width="1.51"/><path d="M7676,-10924L3870,-10066L4824,-9474Z" fill="rgb(37,63,75)" stroke="rgb(37,63,75)" stroke-width="1.51"/><path d="M7676,-10924L4824,-9474L5701,-9065Z" fill="rgb(37,63,75)" stroke="rgb(37,63,75)" stroke-width="1.51"/><path d="M13954,-2330L11532,-7018L10747,-3261Z" fill="rgb(37,63,75)" stroke="rgb(37,63,75)" stroke-width="1.51"/><path d="M-3787,-11318L-5607,-11784L-5073,-10093Z" fill="rgb(36,54,63)" stroke="rgb(36,54,63)" stroke-width="1.51"/><path d="M-3326,-12910L-5607,-11784L-3787,-11318Z" fill="rgb(36,54,63)" stroke="rgb(36,54,63)" stroke-width="1.51"/><path d="M-7443,-10589L-11502,-8374L-8750,-7206Z" fill="rgb(36,54,63)" stroke="rgb(36,54,63)" stroke-width="1.51"/><path d="M-5607,-11784L-7194,-11219L-5073,-10093Z" fill="rgb(36,54,63)" stroke="rgb(36,54,63)" stroke-width="1.51"/><path d="M11532,-7018L7676,-10924L6102,-8132Z" fill="rgb(37,63,75)" stroke="rgb(37,63,75)" stroke-width="1.51"/><path d="M-7194,-11219L-11502,-8374L-7443,-10589Z" fill="rgb(36,54,63)" stroke="rgb(36,54,63)" stroke-width="1.51"/><path d="M-11217,-2294L-11502,-8374L-13017,9010Z" fill="rgb(36,54,63)" stroke="rgb(36,54,63)" stroke-width="1.51"/><path d="M-5607,-11784L-3326,-12910L-7194,-11219Z" fill="rgb(36,54,63)" stroke="rgb(36,54,63)" stroke-width="1.51"/><path d="M3039,-12174L-3326,-12910L-1751,-11006Z" fill="rgb(36,54,63)" stroke="rgb(36,54,63)" stroke-width="1.51"/><path d="M11284,-12160L7948,-11930L7676,-10924Z" fill="rgb(37,63,75)" stroke="rgb(37,63,75)" stroke-width="1.51"/><path d="M7676,-10924L7948,-11930L3039,-12174Z" fill="rgb(37,63,75)" stroke="rgb(37,63,75)" stroke-width="1.51"/><path d="M3039,-12174L11284,-12160L-3326,-12910Z" fill="rgb(37,63,75)" stroke="rgb(37,63,75)" stroke-width="1.51"/><path d="M11532,-7018L12491,-10141L7676,-10924Z" fill="rgb(37,63,75)" stroke="rgb(37,63,75)" stroke-width="1.51"/><path d="M13954,-2330L13333,-7450L11532,-7018Z" fill="rgb(37,63,75)" stroke="rgb(37,63,75)" stroke-width="1.51"/><path d="M13375,-9477L13333,-7450L13954,-2330Z" fill="rgb(37,63,75)" stroke="rgb(37,63,75)" stroke-width="1.51"/><path d="M12029,8979L12812,13755L14012,2708Z" fill="rgb(38,72,88)" stroke="rgb(38,72,88)" stroke-width="1.51"/><path d="M14012,2708L12812,13755L14456,61Z" fill="rgb(38,72,88)" stroke="rgb(38,72,88)" stroke-width="1.51"/><path d="M7875,11246L12812,13755L12029,8979Z" fill="rgb(38,72,88)" stroke="rgb(38,72,88)" stroke-width="1.51"/><path d="M6541,11682L12812,13755L7875,11246Z" fill="rgb(38,72,88)" stroke="rgb(38,72,88)" stroke-width="1.51"/><path d="M4937,11821L12812,13755L6541,11682Z" fill="rgb(38,72,88)" stroke="rgb(38,72,88)" stroke-width="1.51"/><path d="M-10104,12845L12812,13755L-4351,12125Z" fill="rgb(37,63,75)" stroke="rgb(37,63,75)" stroke-width="1.51"/><path d="M13375,-9477L12491,-10141L11532,-7018Z" fill="rgb(37,63,75)" stroke="rgb(37,63,75)" stroke-width="1.51"/><path d="M13333,-7450L13375,-9477L11532,-7018Z" fill="rgb(37,63,75)" stroke="rgb(37,63,75)" stroke-width="1.51"/><path d="M14456,61L13375,-9477L13954,-2330Z" fill="rgb(37,63,75)" stroke="rgb(37,63,75)" stroke-width="1.51"/><path d="M13375,-9477L11284,-12160L12491,-10141Z" fill="rgb(37,63,75)" stroke="rgb(37,63,75)" stroke-width="1.51"/><path d="M12491,-10141L11284,-12160L7676,-10924Z" fill="rgb(37,63,75)" stroke="rgb(37,63,75)" stroke-width="1.51"/><path d="M7948,-11930L11284,-12160L3039,-12174Z" fill="rgb(37,63,75)" stroke="rgb(37,63,75)" stroke-width="1.51"/></svg>