<svg xmlns="http://www.w3.org/2000/svg" width="2280" height="1000"><path d="M475,-1306L1875,-1355L-24,-3485Z" fill="rgb(30,50,55)" stroke="rgb(30,50,55)" stroke-width="1.51"/><path d="M-24,-3485L-768,-2678L475,-1306Z" fill="rgb(29,48,53)" stroke="rgb(29,48,53)" stroke-width="1.51"/><path d="M1875,-1355L3081,-2706L-24,-3485Z" fill="rgb(31,52,58)" stroke="rgb(31,52,58)" stroke-width="1.51"/><path d="M-24,-3485L-422,-3957L-768,-2678Z" fill="rgb(29,48,53)" stroke="rgb(29,48,53)" stroke-width="1.51"/><path d="M687,-6376L-422,-3957L-24,-3485Z" fill="rgb(29,48,53)" stroke="rgb(29,48,53)" stroke-width="1.51"/><path d="M1875,-1355L3102,-1703L3081,-2706Z" fill="rgb(32,54,60)" stroke="rgb(32,54,60)" stroke-width="1.51"/><path d="M-768,-2678L-1102,-1608L475,-1306Z" fill="rgb(29,48,53)" stroke="rgb(29,48,53)" stroke-width="1.51"/><path d="M-3245,-2232L-1102,-1608L-768,-2678Z" fill="rgb(29,48,53)" stroke="rgb(29,48,53)" stroke-width="1.51"/><path d="M3102,-1703L3883,-2419L3081,-2706Z" fill="rgb(32,54,60)" stroke="rgb(32,54,60)" stroke-width="1.51"/><path d="M1875,-1355L3402,-1494L3102,-1703Z" fill="rgb(32,54,60)" stroke="rgb(32,54,60)" stroke-width="1.51"/><path d="M3402,-1494L3883,-2419L3102,-1703Z" fill="rgb(32,54,60)" stroke="rgb(32,54,60)" stroke-width="1.51"/><path d="M-422,-3957L-1684,-4199L-768,-2678Z" fill="rgb(29,48,53)" stroke="rgb(29,48,53)" stroke-width="1.51"/><path d="M475,-1306L505,1967L1875,-1355Z" fill="rgb(30,50,56)" stroke="rgb(30,50,56)" stroke-width="1.51"/><path d="M1875,-1355L4885,206L3402,-1494Z" fill="rgb(32,54,60)" stroke="rgb(32,54,60)" stroke-width="1.51"/><path d="M-1102,-1608L-1493,-184L475,-1306Z" fill="rgb(29,48,53)" stroke="rgb(29,48,53)" stroke-width="1.51"/><path d="M-2555,-651L-1493,-184L-1102,-1608Z" fill="rgb(29,48,53)" stroke="rgb(29,48,53)" stroke-width="1.51"/><path d="M1546,-6525L687,-6376L-24,-3485Z" fill="rgb(30,50,55)" stroke="rgb(30,50,55)" stroke-width="1.51"/><path d="M-422,-3957L-1620,-5363L-1684,-4199Z" fill="rgb(29,48,53)" stroke="rgb(29,48,53)" stroke-width="1.51"/><path d="M1546,-6525L-24,-3485L3081,-2706Z" fill="rgb(31,52,58)" stroke="rgb(31,52,58)" stroke-width="1.51"/><path d="M687,-6376L-1620,-5363L-422,-3957Z" fill="rgb(29,48,53)" stroke="rgb(29,48,53)" stroke-width="1.51"/><path d="M4164,-5552L1546,-6525L3081,-2706Z" fill="rgb(32,54,60)" stroke="rgb(32,54,60)" stroke-width="1.51"/><path d="M-3245,-2232L-768,-2678L-1684,-4199Z" fill="rgb(29,48,53)" stroke="rgb(29,48,53)" stroke-width="1.51"/><path d="M-3245,-2232L-2555,-651L-1102,-1608Z" fill="rgb(29,48,53)" stroke="rgb(29,48,53)" stroke-width="1.51"/><path d="M3883,-2419L4164,-5552L3081,-2706Z" fill="rgb(32,54,60)" stroke="rgb(32,54,60)" stroke-width="1.51"/><path d="M-4077,-3419L-3245,-2232L-1684,-4199Z" fill="rgb(29,48,53)" stroke="rgb(29,48,53)" stroke-width="1.51"/><path d="M3883,-2419L5399,-4816L4164,-5552Z" fill="rgb(32,54,60)" stroke="rgb(32,54,60)" stroke-width="1.51"/><path d="M5650,-876L5573,-2162L3883,-2419Z" fill="rgb(32,54,60)" stroke="rgb(32,54,60)" stroke-width="1.51"/><path d="M-1620,-5363L-2706,-5013L-1684,-4199Z" fill="rgb(29,48,53)" stroke="rgb(29,48,53)" stroke-width="1.51"/><path d="M-1897,-7785L-2706,-5013L-1620,-5363Z" fill="rgb(29,48,53)" stroke="rgb(29,48,53)" stroke-width="1.51"/><path d="M687,-6376L430,-7097L-1620,-5363Z" fill="rgb(29,48,53)" stroke="rgb(29,48,53)" stroke-width="1.51"/><path d="M1546,-6525L430,-7097L687,-6376Z" fill="rgb(30,50,56)" stroke="rgb(30,50,56)" stroke-width="1.51"/><path d="M353,-7747L430,-7097L1546,-6525Z" fill="rgb(30,50,55)" stroke="rgb(30,50,55)" stroke-width="1.51"/><path d="M257,2065L505,1967L-1493,-184Z" fill="rgb(32,54,60)" stroke="rgb(32,54,60)" stroke-width="1.51"/><path d="M-1493,-184L505,1967L475,-1306Z" fill="rgb(29,49,54)" stroke="rgb(29,49,54)" stroke-width="1.51"/><path d="M3402,-1494L5650,-876L3883,-2419Z" fill="rgb(32,54,60)" stroke="rgb(32,54,60)" stroke-width="1.51"/><path d="M2533,2686L4885,206L1875,-1355Z" fill="rgb(34,57,64)" stroke="rgb(34,57,64)" stroke-width="1.51"/><path d="M-2811,581L257,2065L-1493,-184Z" fill="rgb(32,53,59)" stroke="rgb(32,53,59)" stroke-width="1.51"/><path d="M5951,-3668L5399,-4816L3883,-2419Z" fill="rgb(32,54,60)" stroke="rgb(32,54,60)" stroke-width="1.51"/><path d="M4885,206L5650,-876L3402,-1494Z" fill="rgb(32,54,60)" stroke="rgb(32,54,60)" stroke-width="1.51"/><path d="M6086,-3359L5951,-3668L5573,-2162Z" fill="rgb(32,54,60)" stroke="rgb(32,54,60)" stroke-width="1.51"/><path d="M5573,-2162L5951,-3668L3883,-2419Z" fill="rgb(32,54,60)" stroke="rgb(32,54,60)" stroke-width="1.51"/><path d="M6287,-2972L6086,-3359L5573,-2162Z" fill="rgb(32,54,60)" stroke="rgb(32,54,60)" stroke-width="1.51"/><path d="M5650,-876L6135,-1951L5573,-2162Z" fill="rgb(32,54,60)" stroke="rgb(32,54,60)" stroke-width="1.51"/><path d="M-2555,-651L-2811,581L-1493,-184Z" fill="rgb(29,48,53)" stroke="rgb(29,48,53)" stroke-width="1.51"/><path d="M-4516,-591L-2811,581L-2555,-651Z" fill="rgb(29,48,53)" stroke="rgb(29,48,53)" stroke-width="1.51"/><path d="M5399,-4816L5547,-5260L4164,-5552Z" fill="rgb(32,54,60)" stroke="rgb(32,54,60)" stroke-width="1.51"/><path d="M1072,-8611L353,-7747L1546,-6525Z" fill="rgb(30,50,56)" stroke="rgb(30,50,56)" stroke-width="1.51"/><path d="M7480,-4591L5547,-5260L5399,-4816Z" fill="rgb(32,54,60)" stroke="rgb(32,54,60)" stroke-width="1.51"/><path d="M7480,-4591L5399,-4816L5951,-3668Z" fill="rgb(32,54,60)" stroke="rgb(32,54,60)" stroke-width="1.51"/><path d="M6086,-3359L7480,-4591L5951,-3668Z" fill="rgb(32,54,60)" stroke="rgb(32,54,60)" stroke-width="1.51"/><path d="M6505,-2421L6287,-2972L5573,-2162Z" fill="rgb(32,54,60)" stroke="rgb(32,54,60)" stroke-width="1.51"/><path d="M430,-7097L-1805,-7756L-1620,-5363Z" fill="rgb(29,48,53)" stroke="rgb(29,48,53)" stroke-width="1.51"/><path d="M2734,-8212L1546,-6525L4164,-5552Z" fill="rgb(32,54,60)" stroke="rgb(32,54,60)" stroke-width="1.51"/><path d="M-2706,-5013L-4077,-3419L-1684,-4199Z" fill="rgb(29,48,53)" stroke="rgb(29,48,53)" stroke-width="1.51"/><path d="M-3245,-2232L-4516,-591L-2555,-651Z" fill="rgb(29,48,53)" stroke="rgb(29,48,53)" stroke-width="1.51"/><path d="M5547,-5260L5369,-5737L4164,-5552Z" fill="rgb(32,54,60)" stroke="rgb(32,54,60)" stroke-width="1.51"/><path d="M6135,-1951L6505,-2421L5573,-2162Z" fill="rgb(32,54,60)" stroke="rgb(32,54,60)" stroke-width="1.51"/><path d="M6931,-6750L5369,-5737L5547,-5260Z" fill="rgb(32,54,60)" stroke="rgb(32,54,60)" stroke-width="1.51"/><path d="M8039,-2589L6505,-2421L6135,-1951Z" fill="rgb(32,54,60)" stroke="rgb(32,54,60)" stroke-width="1.51"/><path d="M257,2065L2533,2686L505,1967Z" fill="rgb(34,57,64)" stroke="rgb(34,57,64)" stroke-width="1.51"/><path d="M505,1967L2533,2686L1875,-1355Z" fill="rgb(35,58,66)" stroke="rgb(35,58,66)" stroke-width="1.51"/><path d="M5265,-7731L2734,-8212L4164,-5552Z" fill="rgb(32,54,60)" stroke="rgb(32,54,60)" stroke-width="1.51"/><path d="M-6948,-5599L-4970,-2847L-4077,-3419Z" fill="rgb(29,48,53)" stroke="rgb(29,48,53)" stroke-width="1.51"/><path d="M353,-7747L-1805,-7756L430,-7097Z" fill="rgb(29,48,53)" stroke="rgb(29,48,53)" stroke-width="1.51"/><path d="M-1897,-7785L-1805,-7756L-17,-9986Z" fill="rgb(29,48,53)" stroke="rgb(29,48,53)" stroke-width="1.51"/><path d="M-4970,-2847L-4516,-591L-3245,-2232Z" fill="rgb(29,48,53)" stroke="rgb(29,48,53)" stroke-width="1.51"/><path d="M-1805,-7756L-1897,-7785L-1620,-5363Z" fill="rgb(29,48,53)" stroke="rgb(29,48,53)" stroke-width="1.51"/><path d="M-17,-9986L-1805,-7756L353,-7747Z" fill="rgb(29,48,53)" stroke="rgb(29,48,53)" stroke-width="1.51"/><path d="M2734,-8212L1072,-8611L1546,-6525Z" fill="rgb(32,52,59)" stroke="rgb(32,52,59)" stroke-width="1.51"/><path d="M-4077,-3419L-4970,-2847L-3245,-2232Z" fill="rgb(29,48,53)" stroke="rgb(29,48,53)" stroke-width="1.51"/><path d="M-5352,-6398L-4077,-3419L-2706,-5013Z" fill="rgb(29,48,53)" stroke="rgb(29,48,53)" stroke-width="1.51"/><path d="M4885,206L5931,1736L5650,-876Z" fill="rgb(33,56,63)" stroke="rgb(33,56,63)" stroke-width="1.51"/><path d="M9122,-1827L8039,-2589L6135,-1951Z" fill="rgb(32,54,60)" stroke="rgb(32,54,60)" stroke-width="1.51"/><path d="M5059,3269L5931,1736L4885,206Z" fill="rgb(36,60,68)" stroke="rgb(36,60,68)" stroke-width="1.51"/><path d="M-4516,-591L-4576,1055L-2811,581Z" fill="rgb(30,50,55)" stroke="rgb(30,50,55)" stroke-width="1.51"/><path d="M-5546,-1374L-5073,-647L-4516,-591Z" fill="rgb(29,48,53)" stroke="rgb(29,48,53)" stroke-width="1.51"/><path d="M257,2065L949,6247L2533,2686Z" fill="rgb(34,57,64)" stroke="rgb(34,57,64)" stroke-width="1.51"/><path d="M-2811,581L-1370,3435L257,2065Z" fill="rgb(32,54,60)" stroke="rgb(32,54,60)" stroke-width="1.51"/><path d="M-1696,3622L-1370,3435L-2811,581Z" fill="rgb(32,54,60)" stroke="rgb(32,54,60)" stroke-width="1.51"/><path d="M5369,-5737L5265,-7731L4164,-5552Z" fill="rgb(32,54,60)" stroke="rgb(32,54,60)" stroke-width="1.51"/><path d="M2734,-8212L-17,-9986L1072,-8611Z" fill="rgb(31,51,57)" stroke="rgb(31,51,57)" stroke-width="1.51"/><path d="M6931,-6750L5265,-7731L5369,-5737Z" fill="rgb(32,54,60)" stroke="rgb(32,54,60)" stroke-width="1.51"/><path d="M7480,-4591L6086,-3359L6287,-2972Z" fill="rgb(32,54,60)" stroke="rgb(32,54,60)" stroke-width="1.51"/><path d="M8039,-2589L7480,-4591L6287,-2972Z" fill="rgb(32,54,60)" stroke="rgb(32,54,60)" stroke-width="1.51"/><path d="M8039,-2589L6287,-2972L6505,-2421Z" fill="rgb(32,54,60)" stroke="rgb(32,54,60)" stroke-width="1.51"/><path d="M-5073,-647L-4576,1055L-4516,-591Z" fill="rgb(29,48,53)" stroke="rgb(29,48,53)" stroke-width="1.51"/><path d="M-6396,3481L-4915,3106L-6898,3007Z" fill="rgb(32,54,60)" stroke="rgb(32,54,60)" stroke-width="1.51"/><path d="M-4970,-2847L-5546,-1374L-4516,-591Z" fill="rgb(29,48,53)" stroke="rgb(29,48,53)" stroke-width="1.51"/><path d="M3517,5268L4813,3586L2533,2686Z" fill="rgb(36,60,68)" stroke="rgb(36,60,68)" stroke-width="1.51"/><path d="M-3552,4162L-1696,3622L-2811,581Z" fill="rgb(32,54,60)" stroke="rgb(32,54,60)" stroke-width="1.51"/><path d="M-1897,-7785L-4275,-6884L-2706,-5013Z" fill="rgb(29,48,53)" stroke="rgb(29,48,53)" stroke-width="1.51"/><path d="M-4970,-2847L-7499,-3543L-5546,-1374Z" fill="rgb(29,48,53)" stroke="rgb(29,48,53)" stroke-width="1.51"/><path d="M9122,-1827L6135,-1951L5650,-876Z" fill="rgb(32,54,60)" stroke="rgb(32,54,60)" stroke-width="1.51"/><path d="M5071,3301L5059,3269L4813,3586Z" fill="rgb(36,60,68)" stroke="rgb(36,60,68)" stroke-width="1.51"/><path d="M2533,2686L5059,3269L4885,206Z" fill="rgb(36,60,68)" stroke="rgb(36,60,68)" stroke-width="1.51"/><path d="M5059,3269L5481,3604L5931,1736Z" fill="rgb(36,60,68)" stroke="rgb(36,60,68)" stroke-width="1.51"/><path d="M4813,3586L5059,3269L2533,2686Z" fill="rgb(36,60,68)" stroke="rgb(36,60,68)" stroke-width="1.51"/><path d="M7537,-6219L5547,-5260L7480,-4591Z" fill="rgb(32,54,60)" stroke="rgb(32,54,60)" stroke-width="1.51"/><path d="M7537,-6219L6931,-6750L5547,-5260Z" fill="rgb(32,54,60)" stroke="rgb(32,54,60)" stroke-width="1.51"/><path d="M3517,5268L2533,2686L949,6247Z" fill="rgb(36,60,68)" stroke="rgb(36,60,68)" stroke-width="1.51"/><path d="M9238,-4279L7537,-6219L7480,-4591Z" fill="rgb(32,54,60)" stroke="rgb(32,54,60)" stroke-width="1.51"/><path d="M1072,-8611L-17,-9986L353,-7747Z" fill="rgb(30,49,54)" stroke="rgb(30,49,54)" stroke-width="1.51"/><path d="M-1897,-7785L-3435,-9283L-4275,-6884Z" fill="rgb(29,48,53)" stroke="rgb(29,48,53)" stroke-width="1.51"/><path d="M7590,-8892L-17,-9986L2734,-8212Z" fill="rgb(32,54,60)" stroke="rgb(32,54,60)" stroke-width="1.51"/><path d="M5265,-7731L7590,-8892L2734,-8212Z" fill="rgb(32,54,60)" stroke="rgb(32,54,60)" stroke-width="1.51"/><path d="M6931,-6750L6957,-7307L5265,-7731Z" fill="rgb(32,54,60)" stroke="rgb(32,54,60)" stroke-width="1.51"/><path d="M7537,-6219L6957,-7307L6931,-6750Z" fill="rgb(32,54,60)" stroke="rgb(32,54,60)" stroke-width="1.51"/><path d="M-6532,-6800L-5352,-6398L-5556,-8524Z" fill="rgb(29,48,53)" stroke="rgb(29,48,53)" stroke-width="1.51"/><path d="M-4275,-6884L-5352,-6398L-2706,-5013Z" fill="rgb(29,48,53)" stroke="rgb(29,48,53)" stroke-width="1.51"/><path d="M5481,3604L5059,3269L5071,3301Z" fill="rgb(36,60,68)" stroke="rgb(36,60,68)" stroke-width="1.51"/><path d="M5481,3604L7214,1812L5931,1736Z" fill="rgb(36,60,68)" stroke="rgb(36,60,68)" stroke-width="1.51"/><path d="M5931,1736L7214,1812L5650,-876Z" fill="rgb(36,59,67)" stroke="rgb(36,59,67)" stroke-width="1.51"/><path d="M4813,3586L5481,3604L5071,3301Z" fill="rgb(36,60,68)" stroke="rgb(36,60,68)" stroke-width="1.51"/><path d="M4832,4871L5481,3604L4813,3586Z" fill="rgb(36,60,68)" stroke="rgb(36,60,68)" stroke-width="1.51"/><path d="M7095,-8253L6784,-7781L6957,-7307Z" fill="rgb(32,54,60)" stroke="rgb(32,54,60)" stroke-width="1.51"/><path d="M6957,-7307L6784,-7781L5265,-7731Z" fill="rgb(32,54,60)" stroke="rgb(32,54,60)" stroke-width="1.51"/><path d="M8039,-2589L9238,-4279L7480,-4591Z" fill="rgb(32,54,60)" stroke="rgb(32,54,60)" stroke-width="1.51"/><path d="M7214,1812L9122,-1827L5650,-876Z" fill="rgb(32,54,60)" stroke="rgb(32,54,60)" stroke-width="1.51"/><path d="M-17,-9986L-3435,-9283L-1897,-7785Z" fill="rgb(29,48,53)" stroke="rgb(29,48,53)" stroke-width="1.51"/><path d="M7590,-8892L7095,-8253L6957,-7307Z" fill="rgb(32,54,60)" stroke="rgb(32,54,60)" stroke-width="1.51"/><path d="M6784,-7781L7095,-8253L5265,-7731Z" fill="rgb(32,54,60)" stroke="rgb(32,54,60)" stroke-width="1.51"/><path d="M7590,-8892L6957,-7307L7537,-6219Z" fill="rgb(32,54,60)" stroke="rgb(32,54,60)" stroke-width="1.51"/><path d="M3685,5839L3517,5268L2726,7053Z" fill="rgb(36,60,68)" stroke="rgb(36,60,68)" stroke-width="1.51"/><path d="M-4915,3106L-3552,4162L-2811,581Z" fill="rgb(32,54,60)" stroke="rgb(32,54,60)" stroke-width="1.51"/><path d="M949,6247L257,2065L-1370,3435Z" fill="rgb(32,54,60)" stroke="rgb(32,54,60)" stroke-width="1.51"/><path d="M-4915,3106L-2811,581L-4576,1055Z" fill="rgb(32,54,60)" stroke="rgb(32,54,60)" stroke-width="1.51"/><path d="M9434,-2220L9238,-4279L8039,-2589Z" fill="rgb(32,54,60)" stroke="rgb(32,54,60)" stroke-width="1.51"/><path d="M9122,-1827L9434,-2220L8039,-2589Z" fill="rgb(32,54,60)" stroke="rgb(32,54,60)" stroke-width="1.51"/><path d="M9827,-1437L9434,-2220L9122,-1827Z" fill="rgb(32,54,60)" stroke="rgb(32,54,60)" stroke-width="1.51"/><path d="M-7623,653L-4576,1055L-5073,-647Z" fill="rgb(30,50,55)" stroke="rgb(30,50,55)" stroke-width="1.51"/><path d="M3517,5268L4832,4871L4813,3586Z" fill="rgb(36,60,68)" stroke="rgb(36,60,68)" stroke-width="1.51"/><path d="M5481,3604L7973,2920L7214,1812Z" fill="rgb(36,60,68)" stroke="rgb(36,60,68)" stroke-width="1.51"/><path d="M-6532,-6800L-6948,-5599L-5352,-6398Z" fill="rgb(29,48,53)" stroke="rgb(29,48,53)" stroke-width="1.51"/><path d="M-5352,-6398L-6948,-5599L-4077,-3419Z" fill="rgb(29,48,53)" stroke="rgb(29,48,53)" stroke-width="1.51"/><path d="M-5546,-1374L-7623,653L-5073,-647Z" fill="rgb(29,48,53)" stroke="rgb(29,48,53)" stroke-width="1.51"/><path d="M-6948,-5599L-7499,-3543L-4970,-2847Z" fill="rgb(29,48,53)" stroke="rgb(29,48,53)" stroke-width="1.51"/><path d="M9238,-4279L9618,-4558L7537,-6219Z" fill="rgb(32,54,60)" stroke="rgb(32,54,60)" stroke-width="1.51"/><path d="M9434,-2220L9618,-4558L9238,-4279Z" fill="rgb(32,54,60)" stroke="rgb(32,54,60)" stroke-width="1.51"/><path d="M-5556,-8524L-5352,-6398L-4275,-6884Z" fill="rgb(29,48,53)" stroke="rgb(29,48,53)" stroke-width="1.51"/><path d="M11958,-4488L9761,-4680L9618,-4558Z" fill="rgb(32,54,60)" stroke="rgb(32,54,60)" stroke-width="1.51"/><path d="M7214,1812L9827,-1437L9122,-1827Z" fill="rgb(32,54,60)" stroke="rgb(32,54,60)" stroke-width="1.51"/><path d="M10345,1578L9827,-1437L7214,1812Z" fill="rgb(35,58,65)" stroke="rgb(35,58,65)" stroke-width="1.51"/><path d="M7391,5321L7973,2920L5481,3604Z" fill="rgb(36,60,68)" stroke="rgb(36,60,68)" stroke-width="1.51"/><path d="M4832,4871L7391,5321L5481,3604Z" fill="rgb(36,60,68)" stroke="rgb(36,60,68)" stroke-width="1.51"/><path d="M3517,5268L3685,5839L4832,4871Z" fill="rgb(36,60,68)" stroke="rgb(36,60,68)" stroke-width="1.51"/><path d="M949,6247L-1370,3435L-1696,3622Z" fill="rgb(32,54,60)" stroke="rgb(32,54,60)" stroke-width="1.51"/><path d="M679,6954L949,6247L258,7192Z" fill="rgb(33,55,62)" stroke="rgb(33,55,62)" stroke-width="1.51"/><path d="M9618,-4558L9761,-4680L7537,-6219Z" fill="rgb(32,54,60)" stroke="rgb(32,54,60)" stroke-width="1.51"/><path d="M11958,-4488L9618,-4558L9434,-2220Z" fill="rgb(32,54,60)" stroke="rgb(32,54,60)" stroke-width="1.51"/><path d="M-3435,-9283L-5556,-8524L-4275,-6884Z" fill="rgb(29,48,53)" stroke="rgb(29,48,53)" stroke-width="1.51"/><path d="M7095,-8253L7590,-8892L5265,-7731Z" fill="rgb(32,54,60)" stroke="rgb(32,54,60)" stroke-width="1.51"/><path d="M10511,-8377L7590,-8892L7537,-6219Z" fill="rgb(32,54,60)" stroke="rgb(32,54,60)" stroke-width="1.51"/><path d="M-8810,-2560L-7623,653L-5546,-1374Z" fill="rgb(29,48,53)" stroke="rgb(29,48,53)" stroke-width="1.51"/><path d="M-3435,-9283L-5712,-9014L-5556,-8524Z" fill="rgb(29,48,53)" stroke="rgb(29,48,53)" stroke-width="1.51"/><path d="M-5556,-8524L-6933,-8116L-6532,-6800Z" fill="rgb(29,48,53)" stroke="rgb(29,48,53)" stroke-width="1.51"/><path d="M-6197,-9301L-5712,-9014L-3435,-9283Z" fill="rgb(29,48,53)" stroke="rgb(29,48,53)" stroke-width="1.51"/><path d="M3685,5839L3743,6428L4832,4871Z" fill="rgb(36,60,68)" stroke="rgb(36,60,68)" stroke-width="1.51"/><path d="M2726,7053L3743,6428L3685,5839Z" fill="rgb(36,60,68)" stroke="rgb(36,60,68)" stroke-width="1.51"/><path d="M-5712,-9014L-5947,-8849L-5556,-8524Z" fill="rgb(29,48,53)" stroke="rgb(29,48,53)" stroke-width="1.51"/><path d="M-6532,-6800L-8034,-6737L-6948,-5599Z" fill="rgb(29,48,53)" stroke="rgb(29,48,53)" stroke-width="1.51"/><path d="M949,6247L2726,7053L3517,5268Z" fill="rgb(36,60,68)" stroke="rgb(36,60,68)" stroke-width="1.51"/><path d="M258,7192L949,6247L-1696,3622Z" fill="rgb(32,54,60)" stroke="rgb(32,54,60)" stroke-width="1.51"/><path d="M-3552,4162L258,7192L-1696,3622Z" fill="rgb(32,54,60)" stroke="rgb(32,54,60)" stroke-width="1.51"/><path d="M-4915,3106L-6769,5167L-3552,4162Z" fill="rgb(32,54,60)" stroke="rgb(32,54,60)" stroke-width="1.51"/><path d="M-7300,2290L-4915,3106L-4576,1055Z" fill="rgb(32,54,60)" stroke="rgb(32,54,60)" stroke-width="1.51"/><path d="M-7623,653L-7300,2290L-4576,1055Z" fill="rgb(32,54,60)" stroke="rgb(32,54,60)" stroke-width="1.51"/><path d="M-5947,-8849L-6933,-8116L-5556,-8524Z" fill="rgb(29,48,53)" stroke="rgb(29,48,53)" stroke-width="1.51"/><path d="M-8034,-6737L-8810,-2560L-7499,-3543Z" fill="rgb(29,48,53)" stroke="rgb(29,48,53)" stroke-width="1.51"/><path d="M679,6954L2726,7053L949,6247Z" fill="rgb(34,58,65)" stroke="rgb(34,58,65)" stroke-width="1.51"/><path d="M-7300,2290L-6898,3007L-4915,3106Z" fill="rgb(32,54,60)" stroke="rgb(32,54,60)" stroke-width="1.51"/><path d="M679,6954L258,7192L2726,7053Z" fill="rgb(34,57,64)" stroke="rgb(34,57,64)" stroke-width="1.51"/><path d="M-2974,8990L258,7192L-3552,4162Z" fill="rgb(32,54,60)" stroke="rgb(32,54,60)" stroke-width="1.51"/><path d="M9827,-1437L10983,-1478L9434,-2220Z" fill="rgb(32,54,60)" stroke="rgb(32,54,60)" stroke-width="1.51"/><path d="M10345,1578L10983,-1478L9827,-1437Z" fill="rgb(32,54,60)" stroke="rgb(32,54,60)" stroke-width="1.51"/><path d="M-5947,-8849L-6197,-9301L-6933,-8116Z" fill="rgb(29,48,53)" stroke="rgb(29,48,53)" stroke-width="1.51"/><path d="M-5712,-9014L-6197,-9301L-5947,-8849Z" fill="rgb(29,48,53)" stroke="rgb(29,48,53)" stroke-width="1.51"/><path d="M-7116,-10290L-6197,-9301L-3435,-9283Z" fill="rgb(29,48,53)" stroke="rgb(29,48,53)" stroke-width="1.51"/><path d="M-9338,5492L-6898,3007L-7300,2290Z" fill="rgb(32,54,60)" stroke="rgb(32,54,60)" stroke-width="1.51"/><path d="M-7499,-3543L-8810,-2560L-5546,-1374Z" fill="rgb(29,48,53)" stroke="rgb(29,48,53)" stroke-width="1.51"/><path d="M-8034,-6737L-7499,-3543L-6948,-5599Z" fill="rgb(29,48,53)" stroke="rgb(29,48,53)" stroke-width="1.51"/><path d="M-6933,-8116L-8034,-6737L-6532,-6800Z" fill="rgb(29,48,53)" stroke="rgb(29,48,53)" stroke-width="1.51"/><path d="M-8617,-8438L-8034,-6737L-6933,-8116Z" fill="rgb(29,48,53)" stroke="rgb(29,48,53)" stroke-width="1.51"/><path d="M7973,2920L10345,1578L7214,1812Z" fill="rgb(36,60,68)" stroke="rgb(36,60,68)" stroke-width="1.51"/><path d="M7263,5774L7391,5321L4832,4871Z" fill="rgb(36,60,68)" stroke="rgb(36,60,68)" stroke-width="1.51"/><path d="M7263,5774L4832,4871L3743,6428Z" fill="rgb(36,60,68)" stroke="rgb(36,60,68)" stroke-width="1.51"/><path d="M9184,4888L10345,1578L7973,2920Z" fill="rgb(36,60,68)" stroke="rgb(36,60,68)" stroke-width="1.51"/><path d="M7391,5321L9184,4888L7973,2920Z" fill="rgb(36,60,68)" stroke="rgb(36,60,68)" stroke-width="1.51"/><path d="M9453,7164L7263,5774L9022,7657Z" fill="rgb(36,60,68)" stroke="rgb(36,60,68)" stroke-width="1.51"/><path d="M9761,-4680L10511,-8377L7537,-6219Z" fill="rgb(32,54,60)" stroke="rgb(32,54,60)" stroke-width="1.51"/><path d="M10983,-1478L11958,-4488L9434,-2220Z" fill="rgb(32,54,60)" stroke="rgb(32,54,60)" stroke-width="1.51"/><path d="M11538,9786L11958,-4488L10983,-1478Z" fill="rgb(36,60,68)" stroke="rgb(36,60,68)" stroke-width="1.51"/><path d="M9072,5519L9184,4888L7391,5321Z" fill="rgb(36,60,68)" stroke="rgb(36,60,68)" stroke-width="1.51"/><path d="M11958,-4488L10511,-8377L9761,-4680Z" fill="rgb(32,54,60)" stroke="rgb(32,54,60)" stroke-width="1.51"/><path d="M-6396,3481L-6769,5167L-4915,3106Z" fill="rgb(32,54,60)" stroke="rgb(32,54,60)" stroke-width="1.51"/><path d="M-7004,5194L-6769,5167L-6396,3481Z" fill="rgb(32,54,60)" stroke="rgb(32,54,60)" stroke-width="1.51"/><path d="M-7004,5194L-6396,3481L-6898,3007Z" fill="rgb(32,54,60)" stroke="rgb(32,54,60)" stroke-width="1.51"/><path d="M-7004,5194L-9338,5492L-8796,5959Z" fill="rgb(32,54,60)" stroke="rgb(32,54,60)" stroke-width="1.51"/><path d="M-6039,7652L-4315,8348L-3552,4162Z" fill="rgb(32,54,60)" stroke="rgb(32,54,60)" stroke-width="1.51"/><path d="M-7004,5194L-6898,3007L-9338,5492Z" fill="rgb(32,54,60)" stroke="rgb(32,54,60)" stroke-width="1.51"/><path d="M-6197,-9301L-7116,-10290L-6933,-8116Z" fill="rgb(29,48,53)" stroke="rgb(29,48,53)" stroke-width="1.51"/><path d="M-17,-9986L-7116,-10290L-3435,-9283Z" fill="rgb(29,48,53)" stroke="rgb(29,48,53)" stroke-width="1.51"/><path d="M7263,5774L9072,5519L7391,5321Z" fill="rgb(36,60,68)" stroke="rgb(36,60,68)" stroke-width="1.51"/><path d="M9184,4888L10733,7403L10345,1578Z" fill="rgb(36,60,68)" stroke="rgb(36,60,68)" stroke-width="1.51"/><path d="M9453,7164L9072,5519L7263,5774Z" fill="rgb(36,60,68)" stroke="rgb(36,60,68)" stroke-width="1.51"/><path d="M-8724,-9314L-8617,-8438L-6933,-8116Z" fill="rgb(29,48,53)" stroke="rgb(29,48,53)" stroke-width="1.51"/><path d="M-8034,-6737L-8617,-8438L-8810,-2560Z" fill="rgb(29,48,53)" stroke="rgb(29,48,53)" stroke-width="1.51"/><path d="M-7116,-10290L-8724,-9314L-6933,-8116Z" fill="rgb(29,48,53)" stroke="rgb(29,48,53)" stroke-width="1.51"/><path d="M-8617,-8438L-8724,-9314L-8810,-2560Z" fill="rgb(29,48,53)" stroke="rgb(29,48,53)" stroke-width="1.51"/><path d="M258,7192L-1729,10194L2726,7053Z" fill="rgb(33,55,62)" stroke="rgb(33,55,62)" stroke-width="1.51"/><path d="M-6039,7652L-3552,4162L-6769,5167Z" fill="rgb(32,54,60)" stroke="rgb(32,54,60)" stroke-width="1.51"/><path d="M-4315,8348L-2974,8990L-3552,4162Z" fill="rgb(32,54,60)" stroke="rgb(32,54,60)" stroke-width="1.51"/><path d="M9022,7657L7263,5774L7511,9045Z" fill="rgb(36,60,68)" stroke="rgb(36,60,68)" stroke-width="1.51"/><path d="M-7004,5194L-6039,7652L-6769,5167Z" fill="rgb(32,54,60)" stroke="rgb(32,54,60)" stroke-width="1.51"/><path d="M-1729,10194L-1999,9548L-2974,8990Z" fill="rgb(32,54,60)" stroke="rgb(32,54,60)" stroke-width="1.51"/><path d="M-5590,8324L-2974,8990L-4315,8348Z" fill="rgb(32,54,60)" stroke="rgb(32,54,60)" stroke-width="1.51"/><path d="M-2974,8990L-1999,9548L258,7192Z" fill="rgb(32,54,60)" stroke="rgb(32,54,60)" stroke-width="1.51"/><path d="M-6039,7652L-5590,8324L-4315,8348Z" fill="rgb(32,54,60)" stroke="rgb(32,54,60)" stroke-width="1.51"/><path d="M-7317,8181L-6205,7861L-6039,7652Z" fill="rgb(32,54,60)" stroke="rgb(32,54,60)" stroke-width="1.51"/><path d="M-5737,8326L-5590,8324L-6039,7652Z" fill="rgb(32,54,60)" stroke="rgb(32,54,60)" stroke-width="1.51"/><path d="M9072,5519L10733,7403L9184,4888Z" fill="rgb(36,60,68)" stroke="rgb(36,60,68)" stroke-width="1.51"/><path d="M10345,1578L11538,9786L10983,-1478Z" fill="rgb(36,60,68)" stroke="rgb(36,60,68)" stroke-width="1.51"/><path d="M7263,5774L3743,6428L7511,9045Z" fill="rgb(36,60,68)" stroke="rgb(36,60,68)" stroke-width="1.51"/><path d="M-6205,7861L-5737,8326L-6039,7652Z" fill="rgb(32,54,60)" stroke="rgb(32,54,60)" stroke-width="1.51"/><path d="M-7280,8978L-1729,10194L-2974,8990Z" fill="rgb(32,54,60)" stroke="rgb(32,54,60)" stroke-width="1.51"/><path d="M7511,9045L3743,6428L6132,10396Z" fill="rgb(36,60,68)" stroke="rgb(36,60,68)" stroke-width="1.51"/><path d="M-6205,7861L-7280,8978L-5737,8326Z" fill="rgb(32,54,60)" stroke="rgb(32,54,60)" stroke-width="1.51"/><path d="M-7004,5194L-7317,8181L-6039,7652Z" fill="rgb(32,54,60)" stroke="rgb(32,54,60)" stroke-width="1.51"/><path d="M-9338,5492L-7300,2290L-7623,653Z" fill="rgb(32,54,60)" stroke="rgb(32,54,60)" stroke-width="1.51"/><path d="M-1999,9548L-1729,10194L258,7192Z" fill="rgb(32,54,60)" stroke="rgb(32,54,60)" stroke-width="1.51"/><path d="M-7280,8978L-2974,8990L-5590,8324Z" fill="rgb(32,54,60)" stroke="rgb(32,54,60)" stroke-width="1.51"/><path d="M-10168,6887L-9338,5492L-8810,-2560Z" fill="rgb(32,54,60)" stroke="rgb(32,54,60)" stroke-width="1.51"/><path d="M-8810,-2560L-9338,5492L-7623,653Z" fill="rgb(32,54,60)" stroke="rgb(32,54,60)" stroke-width="1.51"/><path d="M6132,10396L3743,6428L2726,7053Z" fill="rgb(36,60,68)" stroke="rgb(36,60,68)" stroke-width="1.51"/><path d="M7511,9045L8793,8284L9022,7657Z" fill="rgb(36,60,68)" stroke="rgb(36,60,68)" stroke-width="1.51"/><path d="M9022,7657L10733,7403L9453,7164Z" fill="rgb(36,60,68)" stroke="rgb(36,60,68)" stroke-width="1.51"/><path d="M-8846,7096L-7004,5194L-8796,5959Z" fill="rgb(32,54,60)" stroke="rgb(32,54,60)" stroke-width="1.51"/><path d="M-8846,7096L-7317,8181L-7004,5194Z" fill="rgb(32,54,60)" stroke="rgb(32,54,60)" stroke-width="1.51"/><path d="M-5737,8326L-7280,8978L-5590,8324Z" fill="rgb(32,54,60)" stroke="rgb(32,54,60)" stroke-width="1.51"/><path d="M10791,9360L10733,7403L8793,8284Z" fill="rgb(36,60,68)" stroke="rgb(36,60,68)" stroke-width="1.51"/><path d="M8793,8284L10733,7403L9022,7657Z" fill="rgb(36,60,68)" stroke="rgb(36,60,68)" stroke-width="1.51"/><path d="M9453,7164L10733,7403L9072,5519Z" fill="rgb(36,60,68)" stroke="rgb(36,60,68)" stroke-width="1.51"/><path d="M-10168,6887L-8846,7096L-8796,5959Z" fill="rgb(32,54,60)" stroke="rgb(32,54,60)" stroke-width="1.51"/><path d="M-1729,10194L6132,10396L2726,7053Z" fill="rgb(36,60,68)" stroke="rgb(36,60,68)" stroke-width="1.51"/><path d="M7511,9045L8003,9919L8793,8284Z" fill="rgb(36,60,68)" stroke="rgb(36,60,68)" stroke-width="1.51"/><path d="M6132,10396L8003,9919L7511,9045Z" fill="rgb(36,60,68)" stroke="rgb(36,60,68)" stroke-width="1.51"/><path d="M-8846,7096L-7280,8978L-7317,8181Z" fill="rgb(32,54,60)" stroke="rgb(32,54,60)" stroke-width="1.51"/><path d="M-7317,8181L-7280,8978L-6205,7861Z" fill="rgb(32,54,60)" stroke="rgb(32,54,60)" stroke-width="1.51"/><path d="M-8846,7096L-10168,6887L-7280,8978Z" fill="rgb(32,54,60)" stroke="rgb(32,54,60)" stroke-width="1.51"/><path d="M-9338,5492L-10168,6887L-8796,5959Z" fill="rgb(32,54,60)" stroke="rgb(32,54,60)" stroke-width="1.51"/><path d="M-8724,-9314L-10168,6887L-8810,-2560Z" fill="rgb(29,48,53)" stroke="rgb(29,48,53)" stroke-width="1.51"/><path d="M10248,10075L10791,9360L8793,8284Z" fill="rgb(36,60,68)" stroke="rgb(36,60,68)" stroke-width="1.51"/><path d="M10733,7403L11538,9786L10345,1578Z" fill="rgb(36,60,68)" stroke="rgb(36,60,68)" stroke-width="1.51"/><path d="M10248,10075L8793,8284L8003,9919Z" fill="rgb(36,60,68)" stroke="rgb(36,60,68)" stroke-width="1.51"/><path d="M6132,10396L10248,10075L8003,9919Z" fill="rgb(36,60,68)" stroke="rgb(36,60,68)" stroke-width="1.51"/><path d="M10248,10075L11538,9786L10791,9360Z" fill="rgb(36,60,68)" stroke="rgb(36,60,68)" stroke-width="1.51"/><path d="M10791,9360L11538,9786L10733,7403Z" fill="rgb(36,60,68)" stroke="rgb(36,60,68)" stroke-width="1.51"/></svg>