<svg xmlns="http://www.w3.org/2000/svg" width="2280" height="1000"><path d="M1555,22L351,1884L1017,1643Z" fill="rgb(34,56,63)" stroke="rgb(34,56,63)" stroke-width="1.51"/><path d="M1555,22L-1902,-336L351,1884Z" fill="rgb(31,51,57)" stroke="rgb(31,51,57)" stroke-width="1.51"/><path d="M-1902,-336L-1709,2691L351,1884Z" fill="rgb(32,54,60)" stroke="rgb(32,54,60)" stroke-width="1.51"/><path d="M-2615,82L-1709,2691L-1902,-336Z" fill="rgb(32,53,59)" stroke="rgb(32,53,59)" stroke-width="1.51"/><path d="M351,1884L-151,3437L1017,1643Z" fill="rgb(33,55,62)" stroke="rgb(33,55,62)" stroke-width="1.51"/><path d="M-1709,2691L-151,3437L351,1884Z" fill="rgb(32,54,60)" stroke="rgb(32,54,60)" stroke-width="1.51"/><path d="M1555,22L989,-2417L-1902,-336Z" fill="rgb(29,48,53)" stroke="rgb(29,48,53)" stroke-width="1.51"/><path d="M-2873,-583L-2873,-68L-2615,82Z" fill="rgb(29,48,53)" stroke="rgb(29,48,53)" stroke-width="1.51"/><path d="M-2615,82L-2873,-68L-1709,2691Z" fill="rgb(32,53,59)" stroke="rgb(32,53,59)" stroke-width="1.51"/><path d="M-2873,-583L-2615,82L-1902,-336Z" fill="rgb(29,48,53)" stroke="rgb(29,48,53)" stroke-width="1.51"/><path d="M-2342,-2530L-2873,-583L-1902,-336Z" fill="rgb(29,48,53)" stroke="rgb(29,48,53)" stroke-width="1.51"/><path d="M-1709,2691L-956,3645L-151,3437Z" fill="rgb(32,54,60)" stroke="rgb(32,54,60)" stroke-width="1.51"/><path d="M1555,22L1849,-2603L989,-2417Z" fill="rgb(31,52,58)" stroke="rgb(31,52,58)" stroke-width="1.51"/><path d="M1017,1643L3237,2708L1555,22Z" fill="rgb(35,59,67)" stroke="rgb(35,59,67)" stroke-width="1.51"/><path d="M1555,22L3531,-2932L1849,-2603Z" fill="rgb(32,54,60)" stroke="rgb(32,54,60)" stroke-width="1.51"/><path d="M2751,3940L3237,2708L1017,1643Z" fill="rgb(36,60,68)" stroke="rgb(36,60,68)" stroke-width="1.51"/><path d="M2751,3940L1017,1643L-151,3437Z" fill="rgb(34,57,64)" stroke="rgb(34,57,64)" stroke-width="1.51"/><path d="M989,-2417L-739,-3185L-1902,-336Z" fill="rgb(29,48,53)" stroke="rgb(29,48,53)" stroke-width="1.51"/><path d="M-667,-3577L-552,-3217L989,-2417Z" fill="rgb(29,48,53)" stroke="rgb(29,48,53)" stroke-width="1.51"/><path d="M-552,-3217L-739,-3185L989,-2417Z" fill="rgb(29,48,53)" stroke="rgb(29,48,53)" stroke-width="1.51"/><path d="M-739,-3185L-2342,-2530L-1902,-336Z" fill="rgb(29,48,53)" stroke="rgb(29,48,53)" stroke-width="1.51"/><path d="M-739,-3185L-1045,-3420L-2342,-2530Z" fill="rgb(29,48,53)" stroke="rgb(29,48,53)" stroke-width="1.51"/><path d="M-667,-3577L-1045,-3420L-739,-3185Z" fill="rgb(29,48,53)" stroke="rgb(29,48,53)" stroke-width="1.51"/><path d="M-667,-3577L-739,-3185L-552,-3217Z" fill="rgb(29,48,53)" stroke="rgb(29,48,53)" stroke-width="1.51"/><path d="M1849,-2603L-667,-3577L989,-2417Z" fill="rgb(30,50,55)" stroke="rgb(30,50,55)" stroke-width="1.51"/><path d="M-667,-3577L-1175,-3548L-1045,-3420Z" fill="rgb(29,48,53)" stroke="rgb(29,48,53)" stroke-width="1.51"/><path d="M-1045,-3420L-2115,-3326L-2342,-2530Z" fill="rgb(29,48,53)" stroke="rgb(29,48,53)" stroke-width="1.51"/><path d="M1064,5786L2751,3940L-151,3437Z" fill="rgb(34,57,64)" stroke="rgb(34,57,64)" stroke-width="1.51"/><path d="M2751,3940L3753,3193L3237,2708Z" fill="rgb(36,60,68)" stroke="rgb(36,60,68)" stroke-width="1.51"/><path d="M3237,2708L4775,1245L1555,22Z" fill="rgb(36,60,68)" stroke="rgb(36,60,68)" stroke-width="1.51"/><path d="M-1175,-3548L-2115,-3326L-1045,-3420Z" fill="rgb(29,48,53)" stroke="rgb(29,48,53)" stroke-width="1.51"/><path d="M3753,3193L4775,1245L3237,2708Z" fill="rgb(36,60,68)" stroke="rgb(36,60,68)" stroke-width="1.51"/><path d="M1849,-2603L85,-6593L-667,-3577Z" fill="rgb(30,49,54)" stroke="rgb(30,49,54)" stroke-width="1.51"/><path d="M5543,-1101L3531,-2932L1555,22Z" fill="rgb(32,54,60)" stroke="rgb(32,54,60)" stroke-width="1.51"/><path d="M-956,3645L-1167,5408L-151,3437Z" fill="rgb(32,54,60)" stroke="rgb(32,54,60)" stroke-width="1.51"/><path d="M-1709,2691L-1167,5408L-956,3645Z" fill="rgb(32,54,60)" stroke="rgb(32,54,60)" stroke-width="1.51"/><path d="M-5662,6096L-1167,5408L-1709,2691Z" fill="rgb(32,54,60)" stroke="rgb(32,54,60)" stroke-width="1.51"/><path d="M-2115,-3326L-3069,-3690L-2342,-2530Z" fill="rgb(29,48,53)" stroke="rgb(29,48,53)" stroke-width="1.51"/><path d="M-2342,-2530L-5301,-3441L-2873,-583Z" fill="rgb(29,48,53)" stroke="rgb(29,48,53)" stroke-width="1.51"/><path d="M-7485,1055L-6977,2082L-2873,-68Z" fill="rgb(32,54,60)" stroke="rgb(32,54,60)" stroke-width="1.51"/><path d="M-2489,-6487L-3069,-3690L-2115,-3326Z" fill="rgb(29,48,53)" stroke="rgb(29,48,53)" stroke-width="1.51"/><path d="M-4543,-4229L-3069,-3690L-4677,-4740Z" fill="rgb(29,48,53)" stroke="rgb(29,48,53)" stroke-width="1.51"/><path d="M-1167,5408L1064,5786L-151,3437Z" fill="rgb(32,54,60)" stroke="rgb(32,54,60)" stroke-width="1.51"/><path d="M2751,3940L3879,5946L3753,3193Z" fill="rgb(36,60,68)" stroke="rgb(36,60,68)" stroke-width="1.51"/><path d="M4775,1245L5543,-1101L1555,22Z" fill="rgb(32,54,61)" stroke="rgb(32,54,61)" stroke-width="1.51"/><path d="M1064,5786L2014,5850L2751,3940Z" fill="rgb(35,59,67)" stroke="rgb(35,59,67)" stroke-width="1.51"/><path d="M5543,-1101L5186,-2275L3531,-2932Z" fill="rgb(32,54,60)" stroke="rgb(32,54,60)" stroke-width="1.51"/><path d="M4860,-4209L4104,-4256L3531,-2932Z" fill="rgb(32,54,60)" stroke="rgb(32,54,60)" stroke-width="1.51"/><path d="M3531,-2932L4104,-4256L1849,-2603Z" fill="rgb(32,54,60)" stroke="rgb(32,54,60)" stroke-width="1.51"/><path d="M-2489,-6487L-2115,-3326L-1175,-3548Z" fill="rgb(29,48,53)" stroke="rgb(29,48,53)" stroke-width="1.51"/><path d="M2219,7081L2687,6331L2014,5850Z" fill="rgb(36,60,68)" stroke="rgb(36,60,68)" stroke-width="1.51"/><path d="M2014,5850L3879,5946L2751,3940Z" fill="rgb(36,60,68)" stroke="rgb(36,60,68)" stroke-width="1.51"/><path d="M7207,1986L6773,40L4775,1245Z" fill="rgb(36,60,68)" stroke="rgb(36,60,68)" stroke-width="1.51"/><path d="M2219,7081L2014,5850L1064,5786Z" fill="rgb(35,58,66)" stroke="rgb(35,58,66)" stroke-width="1.51"/><path d="M7133,-2755L6032,-3218L5186,-2275Z" fill="rgb(32,54,60)" stroke="rgb(32,54,60)" stroke-width="1.51"/><path d="M5186,-2275L4860,-4209L3531,-2932Z" fill="rgb(32,54,60)" stroke="rgb(32,54,60)" stroke-width="1.51"/><path d="M4775,1245L6773,40L5543,-1101Z" fill="rgb(32,54,61)" stroke="rgb(32,54,61)" stroke-width="1.51"/><path d="M7207,1986L4775,1245L7102,3214Z" fill="rgb(36,60,68)" stroke="rgb(36,60,68)" stroke-width="1.51"/><path d="M2687,6331L3879,5946L2014,5850Z" fill="rgb(36,60,68)" stroke="rgb(36,60,68)" stroke-width="1.51"/><path d="M6032,-3218L4860,-4209L5186,-2275Z" fill="rgb(32,54,60)" stroke="rgb(32,54,60)" stroke-width="1.51"/><path d="M-3069,-3690L-5301,-3441L-2342,-2530Z" fill="rgb(29,48,53)" stroke="rgb(29,48,53)" stroke-width="1.51"/><path d="M-2873,-68L-6947,2272L-1709,2691Z" fill="rgb(32,54,60)" stroke="rgb(32,54,60)" stroke-width="1.51"/><path d="M85,-6593L-1175,-3548L-667,-3577Z" fill="rgb(29,48,53)" stroke="rgb(29,48,53)" stroke-width="1.51"/><path d="M6773,40L6886,-224L5543,-1101Z" fill="rgb(32,54,60)" stroke="rgb(32,54,60)" stroke-width="1.51"/><path d="M-4543,-4229L-5301,-3441L-3069,-3690Z" fill="rgb(29,48,53)" stroke="rgb(29,48,53)" stroke-width="1.51"/><path d="M7133,-2755L5186,-2275L5543,-1101Z" fill="rgb(32,54,60)" stroke="rgb(32,54,60)" stroke-width="1.51"/><path d="M2687,6331L4633,8279L3879,5946Z" fill="rgb(36,60,68)" stroke="rgb(36,60,68)" stroke-width="1.51"/><path d="M113,7381L2219,7081L1064,5786Z" fill="rgb(34,57,64)" stroke="rgb(34,57,64)" stroke-width="1.51"/><path d="M-1167,5408L113,7381L1064,5786Z" fill="rgb(32,54,60)" stroke="rgb(32,54,60)" stroke-width="1.51"/><path d="M260,-7776L85,-6593L1976,-8424Z" fill="rgb(30,50,55)" stroke="rgb(30,50,55)" stroke-width="1.51"/><path d="M4104,-4256L85,-6593L1849,-2603Z" fill="rgb(32,53,59)" stroke="rgb(32,53,59)" stroke-width="1.51"/><path d="M7102,3214L4775,1245L3753,3193Z" fill="rgb(36,60,68)" stroke="rgb(36,60,68)" stroke-width="1.51"/><path d="M9503,-283L8557,-1062L6886,-224Z" fill="rgb(32,54,60)" stroke="rgb(32,54,60)" stroke-width="1.51"/><path d="M-4543,-4229L-5494,-4301L-5301,-3441Z" fill="rgb(29,48,53)" stroke="rgb(29,48,53)" stroke-width="1.51"/><path d="M-2489,-6487L-4677,-4740L-3069,-3690Z" fill="rgb(29,48,53)" stroke="rgb(29,48,53)" stroke-width="1.51"/><path d="M-7485,1055L-2873,-68L-2873,-583Z" fill="rgb(29,49,54)" stroke="rgb(29,49,54)" stroke-width="1.51"/><path d="M-1882,8659L-372,8863L113,7381Z" fill="rgb(32,54,60)" stroke="rgb(32,54,60)" stroke-width="1.51"/><path d="M-6977,2082L-6947,2272L-2873,-68Z" fill="rgb(32,54,60)" stroke="rgb(32,54,60)" stroke-width="1.51"/><path d="M7199,3670L7102,3214L6900,4374Z" fill="rgb(36,60,68)" stroke="rgb(36,60,68)" stroke-width="1.51"/><path d="M-5301,-3441L-7485,1055L-2873,-583Z" fill="rgb(29,48,53)" stroke="rgb(29,48,53)" stroke-width="1.51"/><path d="M-4677,-4740L-5494,-4301L-4543,-4229Z" fill="rgb(29,48,53)" stroke="rgb(29,48,53)" stroke-width="1.51"/><path d="M-9564,3314L-6907,2659L-6947,2272Z" fill="rgb(32,54,60)" stroke="rgb(32,54,60)" stroke-width="1.51"/><path d="M-6947,2272L-6907,2659L-1709,2691Z" fill="rgb(32,54,60)" stroke="rgb(32,54,60)" stroke-width="1.51"/><path d="M85,-6593L-2489,-6487L-1175,-3548Z" fill="rgb(29,48,53)" stroke="rgb(29,48,53)" stroke-width="1.51"/><path d="M-4677,-4740L-5594,-4404L-5494,-4301Z" fill="rgb(29,48,53)" stroke="rgb(29,48,53)" stroke-width="1.51"/><path d="M3879,5946L4985,6297L3753,3193Z" fill="rgb(36,60,68)" stroke="rgb(36,60,68)" stroke-width="1.51"/><path d="M4633,8279L4985,6297L3879,5946Z" fill="rgb(36,60,68)" stroke="rgb(36,60,68)" stroke-width="1.51"/><path d="M-5867,-5458L-5594,-4404L-4677,-4740Z" fill="rgb(29,48,53)" stroke="rgb(29,48,53)" stroke-width="1.51"/><path d="M-5494,-4301L-5594,-4404L-5301,-3441Z" fill="rgb(29,48,53)" stroke="rgb(29,48,53)" stroke-width="1.51"/><path d="M6886,-224L7133,-2755L5543,-1101Z" fill="rgb(32,54,60)" stroke="rgb(32,54,60)" stroke-width="1.51"/><path d="M6233,-6151L4968,-6919L4860,-4209Z" fill="rgb(32,54,60)" stroke="rgb(32,54,60)" stroke-width="1.51"/><path d="M8557,-1062L7133,-2755L6886,-224Z" fill="rgb(32,54,60)" stroke="rgb(32,54,60)" stroke-width="1.51"/><path d="M6900,4374L7102,3214L3753,3193Z" fill="rgb(36,60,68)" stroke="rgb(36,60,68)" stroke-width="1.51"/><path d="M7102,3214L8417,2236L7207,1986Z" fill="rgb(36,60,68)" stroke="rgb(36,60,68)" stroke-width="1.51"/><path d="M-6977,2082L-9564,3314L-6947,2272Z" fill="rgb(32,54,60)" stroke="rgb(32,54,60)" stroke-width="1.51"/><path d="M-8896,41L-7485,1055L-5301,-3441Z" fill="rgb(29,48,53)" stroke="rgb(29,48,53)" stroke-width="1.51"/><path d="M4985,6297L6900,4374L3753,3193Z" fill="rgb(36,60,68)" stroke="rgb(36,60,68)" stroke-width="1.51"/><path d="M-6087,-6312L-5867,-5458L-4677,-4740Z" fill="rgb(29,48,53)" stroke="rgb(29,48,53)" stroke-width="1.51"/><path d="M85,-6593L-1586,-7176L-2489,-6487Z" fill="rgb(29,48,53)" stroke="rgb(29,48,53)" stroke-width="1.51"/><path d="M-5727,6047L-5662,6096L-1709,2691Z" fill="rgb(32,54,60)" stroke="rgb(32,54,60)" stroke-width="1.51"/><path d="M-9564,3314L-5727,6047L-6907,2659Z" fill="rgb(32,54,60)" stroke="rgb(32,54,60)" stroke-width="1.51"/><path d="M-6907,2659L-5727,6047L-1709,2691Z" fill="rgb(32,54,60)" stroke="rgb(32,54,60)" stroke-width="1.51"/><path d="M-5727,6047L-5649,6141L-5662,6096Z" fill="rgb(32,54,60)" stroke="rgb(32,54,60)" stroke-width="1.51"/><path d="M-5662,6096L-5649,6141L-1167,5408Z" fill="rgb(32,54,60)" stroke="rgb(32,54,60)" stroke-width="1.51"/><path d="M4202,-7669L85,-6593L4104,-4256Z" fill="rgb(32,54,60)" stroke="rgb(32,54,60)" stroke-width="1.51"/><path d="M85,-6593L260,-7776L-1586,-7176Z" fill="rgb(29,48,53)" stroke="rgb(29,48,53)" stroke-width="1.51"/><path d="M4968,-6919L4104,-4256L4860,-4209Z" fill="rgb(32,54,60)" stroke="rgb(32,54,60)" stroke-width="1.51"/><path d="M8819,2906L8417,2236L7102,3214Z" fill="rgb(36,60,68)" stroke="rgb(36,60,68)" stroke-width="1.51"/><path d="M7207,1986L8417,2236L6773,40Z" fill="rgb(36,60,68)" stroke="rgb(36,60,68)" stroke-width="1.51"/><path d="M8007,4150L7102,3214L7199,3670Z" fill="rgb(36,60,68)" stroke="rgb(36,60,68)" stroke-width="1.51"/><path d="M-1882,8659L113,7381L-1167,5408Z" fill="rgb(32,54,60)" stroke="rgb(32,54,60)" stroke-width="1.51"/><path d="M113,7381L-372,8863L2219,7081Z" fill="rgb(33,55,62)" stroke="rgb(33,55,62)" stroke-width="1.51"/><path d="M2219,7081L4633,8279L2687,6331Z" fill="rgb(36,60,68)" stroke="rgb(36,60,68)" stroke-width="1.51"/><path d="M-3078,8342L-1882,8659L-1167,5408Z" fill="rgb(32,54,60)" stroke="rgb(32,54,60)" stroke-width="1.51"/><path d="M9503,-283L6886,-224L6773,40Z" fill="rgb(32,54,60)" stroke="rgb(32,54,60)" stroke-width="1.51"/><path d="M-9680,-4014L-8896,41L-5301,-3441Z" fill="rgb(29,48,53)" stroke="rgb(29,48,53)" stroke-width="1.51"/><path d="M-6087,-6312L-4677,-4740L-2489,-6487Z" fill="rgb(29,48,53)" stroke="rgb(29,48,53)" stroke-width="1.51"/><path d="M-4210,8190L-3078,8342L-1167,5408Z" fill="rgb(32,54,60)" stroke="rgb(32,54,60)" stroke-width="1.51"/><path d="M-1586,-7176L-2099,-7787L-2489,-6487Z" fill="rgb(29,48,53)" stroke="rgb(29,48,53)" stroke-width="1.51"/><path d="M-1241,-8254L-2099,-7787L-1586,-7176Z" fill="rgb(29,48,53)" stroke="rgb(29,48,53)" stroke-width="1.51"/><path d="M8717,4931L8007,4150L6900,4374Z" fill="rgb(36,60,68)" stroke="rgb(36,60,68)" stroke-width="1.51"/><path d="M6900,4374L8007,4150L7199,3670Z" fill="rgb(36,60,68)" stroke="rgb(36,60,68)" stroke-width="1.51"/><path d="M6233,-6151L6032,-3218L7935,-4497Z" fill="rgb(32,54,60)" stroke="rgb(32,54,60)" stroke-width="1.51"/><path d="M6233,-6151L4860,-4209L6032,-3218Z" fill="rgb(32,54,60)" stroke="rgb(32,54,60)" stroke-width="1.51"/><path d="M-1362,-9607L-1241,-8254L260,-7776Z" fill="rgb(29,48,53)" stroke="rgb(29,48,53)" stroke-width="1.51"/><path d="M260,-7776L-1241,-8254L-1586,-7176Z" fill="rgb(29,48,53)" stroke="rgb(29,48,53)" stroke-width="1.51"/><path d="M-5649,6141L-4210,8190L-1167,5408Z" fill="rgb(32,54,60)" stroke="rgb(32,54,60)" stroke-width="1.51"/><path d="M-3078,8342L-2554,9565L-1882,8659Z" fill="rgb(32,54,60)" stroke="rgb(32,54,60)" stroke-width="1.51"/><path d="M-6730,8336L-4210,8190L-5649,6141Z" fill="rgb(32,54,60)" stroke="rgb(32,54,60)" stroke-width="1.51"/><path d="M8007,4150L8819,2906L7102,3214Z" fill="rgb(36,60,68)" stroke="rgb(36,60,68)" stroke-width="1.51"/><path d="M8417,2236L9503,-283L6773,40Z" fill="rgb(35,58,65)" stroke="rgb(35,58,65)" stroke-width="1.51"/><path d="M7935,-4497L6032,-3218L7133,-2755Z" fill="rgb(32,54,60)" stroke="rgb(32,54,60)" stroke-width="1.51"/><path d="M9379,6205L8717,4931L8660,7239Z" fill="rgb(36,60,68)" stroke="rgb(36,60,68)" stroke-width="1.51"/><path d="M4741,9563L4633,8279L4264,10105Z" fill="rgb(36,60,68)" stroke="rgb(36,60,68)" stroke-width="1.51"/><path d="M5339,-7704L4202,-7669L4968,-6919Z" fill="rgb(32,54,60)" stroke="rgb(32,54,60)" stroke-width="1.51"/><path d="M4968,-6919L4202,-7669L4104,-4256Z" fill="rgb(32,54,60)" stroke="rgb(32,54,60)" stroke-width="1.51"/><path d="M4202,-7669L1976,-8424L85,-6593Z" fill="rgb(32,53,60)" stroke="rgb(32,53,60)" stroke-width="1.51"/><path d="M-9680,-4014L-5301,-3441L-5594,-4404Z" fill="rgb(29,48,53)" stroke="rgb(29,48,53)" stroke-width="1.51"/><path d="M-7485,1055L-9564,3314L-6977,2082Z" fill="rgb(32,54,60)" stroke="rgb(32,54,60)" stroke-width="1.51"/><path d="M8360,-3776L8214,-3928L7133,-2755Z" fill="rgb(32,54,60)" stroke="rgb(32,54,60)" stroke-width="1.51"/><path d="M8214,-3928L7935,-4497L7133,-2755Z" fill="rgb(32,54,60)" stroke="rgb(32,54,60)" stroke-width="1.51"/><path d="M8214,-3928L9466,-4285L7935,-4497Z" fill="rgb(32,54,60)" stroke="rgb(32,54,60)" stroke-width="1.51"/><path d="M9390,-1764L8360,-3776L7133,-2755Z" fill="rgb(32,54,60)" stroke="rgb(32,54,60)" stroke-width="1.51"/><path d="M-5867,-5458L-9680,-4014L-5594,-4404Z" fill="rgb(29,48,53)" stroke="rgb(29,48,53)" stroke-width="1.51"/><path d="M-6252,-8471L-6087,-6312L-2489,-6487Z" fill="rgb(29,48,53)" stroke="rgb(29,48,53)" stroke-width="1.51"/><path d="M-6870,-7805L-6087,-6312L-6252,-8471Z" fill="rgb(29,48,53)" stroke="rgb(29,48,53)" stroke-width="1.51"/><path d="M8557,-1062L9390,-1764L7133,-2755Z" fill="rgb(32,54,60)" stroke="rgb(32,54,60)" stroke-width="1.51"/><path d="M9444,2436L9503,-283L8417,2236Z" fill="rgb(36,60,68)" stroke="rgb(36,60,68)" stroke-width="1.51"/><path d="M9503,-283L9493,-1199L8557,-1062Z" fill="rgb(32,54,60)" stroke="rgb(32,54,60)" stroke-width="1.51"/><path d="M8819,2906L9444,2436L8417,2236Z" fill="rgb(36,60,68)" stroke="rgb(36,60,68)" stroke-width="1.51"/><path d="M9759,5472L9444,2436L8819,2906Z" fill="rgb(36,60,68)" stroke="rgb(36,60,68)" stroke-width="1.51"/><path d="M8717,4931L8819,2906L8007,4150Z" fill="rgb(36,60,68)" stroke="rgb(36,60,68)" stroke-width="1.51"/><path d="M9493,-1199L9390,-1764L8557,-1062Z" fill="rgb(32,54,60)" stroke="rgb(32,54,60)" stroke-width="1.51"/><path d="M-372,8863L0,10440L2219,7081Z" fill="rgb(33,55,62)" stroke="rgb(33,55,62)" stroke-width="1.51"/><path d="M-1882,8659L-2554,9565L-372,8863Z" fill="rgb(32,54,60)" stroke="rgb(32,54,60)" stroke-width="1.51"/><path d="M-4293,10221L-2554,9565L-3078,8342Z" fill="rgb(32,54,60)" stroke="rgb(32,54,60)" stroke-width="1.51"/><path d="M8717,4931L6900,4374L8660,7239Z" fill="rgb(36,60,68)" stroke="rgb(36,60,68)" stroke-width="1.51"/><path d="M5289,-7867L5339,-7704L5999,-7964Z" fill="rgb(32,54,60)" stroke="rgb(32,54,60)" stroke-width="1.51"/><path d="M6233,-6151L5339,-7704L4968,-6919Z" fill="rgb(32,54,60)" stroke="rgb(32,54,60)" stroke-width="1.51"/><path d="M4202,-7669L3345,-8889L1976,-8424Z" fill="rgb(32,54,60)" stroke="rgb(32,54,60)" stroke-width="1.51"/><path d="M5999,-7964L5339,-7704L6233,-6151Z" fill="rgb(32,54,60)" stroke="rgb(32,54,60)" stroke-width="1.51"/><path d="M5339,-7704L5289,-7867L4202,-7669Z" fill="rgb(32,54,60)" stroke="rgb(32,54,60)" stroke-width="1.51"/><path d="M4165,-8800L3345,-8889L4202,-7669Z" fill="rgb(32,54,60)" stroke="rgb(32,54,60)" stroke-width="1.51"/><path d="M1761,-9888L-1362,-9607L260,-7776Z" fill="rgb(29,48,53)" stroke="rgb(29,48,53)" stroke-width="1.51"/><path d="M-2554,9565L0,10440L-372,8863Z" fill="rgb(32,54,60)" stroke="rgb(32,54,60)" stroke-width="1.51"/><path d="M4633,8279L5544,9055L4985,6297Z" fill="rgb(36,60,68)" stroke="rgb(36,60,68)" stroke-width="1.51"/><path d="M4741,9563L5417,9023L4633,8279Z" fill="rgb(36,60,68)" stroke="rgb(36,60,68)" stroke-width="1.51"/><path d="M5289,-7867L4165,-8800L4202,-7669Z" fill="rgb(32,54,60)" stroke="rgb(32,54,60)" stroke-width="1.51"/><path d="M5417,9023L5544,9055L4633,8279Z" fill="rgb(36,60,68)" stroke="rgb(36,60,68)" stroke-width="1.51"/><path d="M4741,9563L5544,9055L5417,9023Z" fill="rgb(36,60,68)" stroke="rgb(36,60,68)" stroke-width="1.51"/><path d="M4264,10105L4633,8279L2219,7081Z" fill="rgb(36,60,68)" stroke="rgb(36,60,68)" stroke-width="1.51"/><path d="M-8896,41L-9564,3314L-7485,1055Z" fill="rgb(32,54,60)" stroke="rgb(32,54,60)" stroke-width="1.51"/><path d="M-5727,6047L-7429,7411L-5649,6141Z" fill="rgb(32,54,60)" stroke="rgb(32,54,60)" stroke-width="1.51"/><path d="M-1241,-8254L-1362,-9607L-2099,-7787Z" fill="rgb(29,48,53)" stroke="rgb(29,48,53)" stroke-width="1.51"/><path d="M1761,-9888L260,-7776L1976,-8424Z" fill="rgb(31,51,57)" stroke="rgb(31,51,57)" stroke-width="1.51"/><path d="M1761,-9888L1976,-8424L3345,-8889Z" fill="rgb(32,54,60)" stroke="rgb(32,54,60)" stroke-width="1.51"/><path d="M5289,-7867L6328,-8710L4165,-8800Z" fill="rgb(32,54,60)" stroke="rgb(32,54,60)" stroke-width="1.51"/><path d="M7547,-7572L5999,-7964L6233,-6151Z" fill="rgb(32,54,60)" stroke="rgb(32,54,60)" stroke-width="1.51"/><path d="M7547,-7572L6233,-6151L8492,-7054Z" fill="rgb(32,54,60)" stroke="rgb(32,54,60)" stroke-width="1.51"/><path d="M-4210,8190L-4293,10221L-3078,8342Z" fill="rgb(32,54,60)" stroke="rgb(32,54,60)" stroke-width="1.51"/><path d="M-8746,7157L-7429,7411L-5727,6047Z" fill="rgb(32,54,60)" stroke="rgb(32,54,60)" stroke-width="1.51"/><path d="M8360,-3776L9466,-4285L8214,-3928Z" fill="rgb(32,54,60)" stroke="rgb(32,54,60)" stroke-width="1.51"/><path d="M9390,-1764L9466,-4285L8360,-3776Z" fill="rgb(32,54,60)" stroke="rgb(32,54,60)" stroke-width="1.51"/><path d="M10781,-1691L9466,-4285L9390,-1764Z" fill="rgb(32,54,60)" stroke="rgb(32,54,60)" stroke-width="1.51"/><path d="M10781,-1691L9390,-1764L9493,-1199Z" fill="rgb(32,54,60)" stroke="rgb(32,54,60)" stroke-width="1.51"/><path d="M4741,9563L7498,9371L5544,9055Z" fill="rgb(36,60,68)" stroke="rgb(36,60,68)" stroke-width="1.51"/><path d="M0,10440L4264,10105L2219,7081Z" fill="rgb(36,59,67)" stroke="rgb(36,59,67)" stroke-width="1.51"/><path d="M4165,-8800L1761,-9888L3345,-8889Z" fill="rgb(32,54,60)" stroke="rgb(32,54,60)" stroke-width="1.51"/><path d="M-7429,7411L-6730,8336L-5649,6141Z" fill="rgb(32,54,60)" stroke="rgb(32,54,60)" stroke-width="1.51"/><path d="M-2554,9565L-4293,10221L0,10440Z" fill="rgb(32,54,60)" stroke="rgb(32,54,60)" stroke-width="1.51"/><path d="M9379,6205L9584,5485L8717,4931Z" fill="rgb(36,60,68)" stroke="rgb(36,60,68)" stroke-width="1.51"/><path d="M8717,4931L9759,5472L8819,2906Z" fill="rgb(36,60,68)" stroke="rgb(36,60,68)" stroke-width="1.51"/><path d="M12130,-864L10781,-1691L9503,-283Z" fill="rgb(32,54,60)" stroke="rgb(32,54,60)" stroke-width="1.51"/><path d="M9503,-283L10781,-1691L9493,-1199Z" fill="rgb(32,54,60)" stroke="rgb(32,54,60)" stroke-width="1.51"/><path d="M-7429,7411L-7540,7831L-6730,8336Z" fill="rgb(32,54,60)" stroke="rgb(32,54,60)" stroke-width="1.51"/><path d="M-8746,7157L-7540,7831L-7429,7411Z" fill="rgb(32,54,60)" stroke="rgb(32,54,60)" stroke-width="1.51"/><path d="M-6387,9485L-4210,8190L-6730,8336Z" fill="rgb(32,54,60)" stroke="rgb(32,54,60)" stroke-width="1.51"/><path d="M-6387,9485L-4293,10221L-4210,8190Z" fill="rgb(32,54,60)" stroke="rgb(32,54,60)" stroke-width="1.51"/><path d="M9379,6205L9759,5472L9584,5485Z" fill="rgb(36,60,68)" stroke="rgb(36,60,68)" stroke-width="1.51"/><path d="M9584,5485L9759,5472L8717,4931Z" fill="rgb(36,60,68)" stroke="rgb(36,60,68)" stroke-width="1.51"/><path d="M12130,-864L9503,-283L9444,2436Z" fill="rgb(34,56,63)" stroke="rgb(34,56,63)" stroke-width="1.51"/><path d="M8660,7239L4985,6297L5544,9055Z" fill="rgb(36,60,68)" stroke="rgb(36,60,68)" stroke-width="1.51"/><path d="M8660,7239L6900,4374L4985,6297Z" fill="rgb(36,60,68)" stroke="rgb(36,60,68)" stroke-width="1.51"/><path d="M8176,8732L8660,7239L5544,9055Z" fill="rgb(36,60,68)" stroke="rgb(36,60,68)" stroke-width="1.51"/><path d="M-8896,41L-9680,-4014L-9564,3314Z" fill="rgb(29,48,53)" stroke="rgb(29,48,53)" stroke-width="1.51"/><path d="M-6087,-6312L-9680,-4014L-5867,-5458Z" fill="rgb(29,48,53)" stroke="rgb(29,48,53)" stroke-width="1.51"/><path d="M-6870,-7805L-9680,-4014L-6087,-6312Z" fill="rgb(29,48,53)" stroke="rgb(29,48,53)" stroke-width="1.51"/><path d="M8492,-7054L6233,-6151L7935,-4497Z" fill="rgb(32,54,60)" stroke="rgb(32,54,60)" stroke-width="1.51"/><path d="M5999,-7964L6328,-8710L5289,-7867Z" fill="rgb(32,54,60)" stroke="rgb(32,54,60)" stroke-width="1.51"/><path d="M4165,-8800L6328,-8710L1761,-9888Z" fill="rgb(32,54,60)" stroke="rgb(32,54,60)" stroke-width="1.51"/><path d="M-6252,-8471L-2489,-6487L-2099,-7787Z" fill="rgb(29,48,53)" stroke="rgb(29,48,53)" stroke-width="1.51"/><path d="M7547,-7572L6328,-8710L5999,-7964Z" fill="rgb(32,54,60)" stroke="rgb(32,54,60)" stroke-width="1.51"/><path d="M-1362,-9607L-6252,-8471L-2099,-7787Z" fill="rgb(29,48,53)" stroke="rgb(29,48,53)" stroke-width="1.51"/><path d="M-7540,7831L-6387,9485L-6730,8336Z" fill="rgb(32,54,60)" stroke="rgb(32,54,60)" stroke-width="1.51"/><path d="M-7540,7831L-8746,7157L-6387,9485Z" fill="rgb(32,54,60)" stroke="rgb(32,54,60)" stroke-width="1.51"/><path d="M-9564,3314L-8746,7157L-5727,6047Z" fill="rgb(32,54,60)" stroke="rgb(32,54,60)" stroke-width="1.51"/><path d="M7547,-7572L8526,-8575L6328,-8710Z" fill="rgb(32,54,60)" stroke="rgb(32,54,60)" stroke-width="1.51"/><path d="M9466,-4285L8492,-7054L7935,-4497Z" fill="rgb(32,54,60)" stroke="rgb(32,54,60)" stroke-width="1.51"/><path d="M9500,-7462L8492,-7054L9466,-4285Z" fill="rgb(32,54,60)" stroke="rgb(32,54,60)" stroke-width="1.51"/><path d="M10547,6191L9759,5472L9379,6205Z" fill="rgb(36,60,68)" stroke="rgb(36,60,68)" stroke-width="1.51"/><path d="M10547,6191L10616,5598L9759,5472Z" fill="rgb(36,60,68)" stroke="rgb(36,60,68)" stroke-width="1.51"/><path d="M7498,9371L8176,8732L5544,9055Z" fill="rgb(36,60,68)" stroke="rgb(36,60,68)" stroke-width="1.51"/><path d="M4264,10105L7498,9371L4741,9563Z" fill="rgb(36,60,68)" stroke="rgb(36,60,68)" stroke-width="1.51"/><path d="M9675,7466L9379,6205L8660,7239Z" fill="rgb(36,60,68)" stroke="rgb(36,60,68)" stroke-width="1.51"/><path d="M9759,5472L11638,4355L9444,2436Z" fill="rgb(36,60,68)" stroke="rgb(36,60,68)" stroke-width="1.51"/><path d="M9883,7885L9675,7466L8660,7239Z" fill="rgb(36,60,68)" stroke="rgb(36,60,68)" stroke-width="1.51"/><path d="M7498,9371L8003,9262L8176,8732Z" fill="rgb(36,60,68)" stroke="rgb(36,60,68)" stroke-width="1.51"/><path d="M9819,9998L8003,9262L7498,9371Z" fill="rgb(36,60,68)" stroke="rgb(36,60,68)" stroke-width="1.51"/><path d="M9883,7885L8660,7239L8176,8732Z" fill="rgb(36,60,68)" stroke="rgb(36,60,68)" stroke-width="1.51"/><path d="M9675,7466L10547,6191L9379,6205Z" fill="rgb(36,60,68)" stroke="rgb(36,60,68)" stroke-width="1.51"/><path d="M10781,-1691L11238,-5689L9466,-4285Z" fill="rgb(32,54,60)" stroke="rgb(32,54,60)" stroke-width="1.51"/><path d="M11638,4355L12130,-864L9444,2436Z" fill="rgb(36,60,68)" stroke="rgb(36,60,68)" stroke-width="1.51"/><path d="M11638,4355L9759,5472L10616,5598Z" fill="rgb(36,60,68)" stroke="rgb(36,60,68)" stroke-width="1.51"/><path d="M11917,5130L11638,4355L10616,5598Z" fill="rgb(36,60,68)" stroke="rgb(36,60,68)" stroke-width="1.51"/><path d="M10547,6191L11917,5130L10616,5598Z" fill="rgb(36,60,68)" stroke="rgb(36,60,68)" stroke-width="1.51"/><path d="M9675,7466L9883,7885L10547,6191Z" fill="rgb(36,60,68)" stroke="rgb(36,60,68)" stroke-width="1.51"/><path d="M9819,9998L9883,7885L8176,8732Z" fill="rgb(36,60,68)" stroke="rgb(36,60,68)" stroke-width="1.51"/><path d="M8492,-7054L8526,-8575L7547,-7572Z" fill="rgb(32,54,60)" stroke="rgb(32,54,60)" stroke-width="1.51"/><path d="M11238,-5689L9500,-7462L9466,-4285Z" fill="rgb(32,54,60)" stroke="rgb(32,54,60)" stroke-width="1.51"/><path d="M9500,-7462L8526,-8575L8492,-7054Z" fill="rgb(32,54,60)" stroke="rgb(32,54,60)" stroke-width="1.51"/><path d="M6328,-8710L8526,-8575L1761,-9888Z" fill="rgb(32,54,60)" stroke="rgb(32,54,60)" stroke-width="1.51"/><path d="M11638,4355L11917,5130L12130,-864Z" fill="rgb(36,60,68)" stroke="rgb(36,60,68)" stroke-width="1.51"/><path d="M9883,7885L11917,5130L10547,6191Z" fill="rgb(36,60,68)" stroke="rgb(36,60,68)" stroke-width="1.51"/><path d="M9500,-7462L10485,-8135L8526,-8575Z" fill="rgb(32,54,60)" stroke="rgb(32,54,60)" stroke-width="1.51"/><path d="M12130,-864L11238,-5689L10781,-1691Z" fill="rgb(32,54,60)" stroke="rgb(32,54,60)" stroke-width="1.51"/><path d="M11238,-5689L11567,-6004L9500,-7462Z" fill="rgb(32,54,60)" stroke="rgb(32,54,60)" stroke-width="1.51"/><path d="M12130,-864L11567,-6004L11238,-5689Z" fill="rgb(32,54,60)" stroke="rgb(32,54,60)" stroke-width="1.51"/><path d="M11567,-6004L10485,-8135L9500,-7462Z" fill="rgb(32,54,60)" stroke="rgb(32,54,60)" stroke-width="1.51"/><path d="M9883,7885L9819,9998L11917,5130Z" fill="rgb(36,60,68)" stroke="rgb(36,60,68)" stroke-width="1.51"/><path d="M8003,9262L9819,9998L8176,8732Z" fill="rgb(36,60,68)" stroke="rgb(36,60,68)" stroke-width="1.51"/><path d="M4264,10105L9819,9998L7498,9371Z" fill="rgb(36,60,68)" stroke="rgb(36,60,68)" stroke-width="1.51"/><path d="M0,10440L9819,9998L4264,10105Z" fill="rgb(36,60,68)" stroke="rgb(36,60,68)" stroke-width="1.51"/></svg>