<svg xmlns="http://www.w3.org/2000/svg" width="2280" height="1000"><path d="M822,1474L204,1278L-778,1814Z" fill="rgb(37,62,75)" stroke="rgb(37,62,75)" stroke-width="1.51"/><path d="M-778,1814L498,3817L822,1474Z" fill="rgb(37,62,74)" stroke="rgb(37,62,74)" stroke-width="1.51"/><path d="M-778,1814L-137,4577L498,3817Z" fill="rgb(37,63,75)" stroke="rgb(37,63,75)" stroke-width="1.51"/><path d="M-2577,365L-1401,1886L-778,1814Z" fill="rgb(37,63,75)" stroke="rgb(37,63,75)" stroke-width="1.51"/><path d="M-1401,1886L-137,4577L-778,1814Z" fill="rgb(37,63,75)" stroke="rgb(37,63,75)" stroke-width="1.51"/><path d="M-137,4577L18,4610L498,3817Z" fill="rgb(37,62,75)" stroke="rgb(37,62,75)" stroke-width="1.51"/><path d="M498,3817L2924,780L822,1474Z" fill="rgb(37,57,67)" stroke="rgb(37,57,67)" stroke-width="1.51"/><path d="M18,4610L962,4986L498,3817Z" fill="rgb(37,61,72)" stroke="rgb(37,61,72)" stroke-width="1.51"/><path d="M565,5293L962,4986L18,4610Z" fill="rgb(37,61,72)" stroke="rgb(37,61,72)" stroke-width="1.51"/><path d="M-1401,1886L-979,4948L-137,4577Z" fill="rgb(37,63,75)" stroke="rgb(37,63,75)" stroke-width="1.51"/><path d="M-137,4577L565,5293L18,4610Z" fill="rgb(37,62,74)" stroke="rgb(37,62,74)" stroke-width="1.51"/><path d="M-2581,2778L-979,4948L-1401,1886Z" fill="rgb(37,63,75)" stroke="rgb(37,63,75)" stroke-width="1.51"/><path d="M73,6152L565,5293L-137,4577Z" fill="rgb(37,62,74)" stroke="rgb(37,62,74)" stroke-width="1.51"/><path d="M822,1474L2408,-193L204,1278Z" fill="rgb(37,60,71)" stroke="rgb(37,60,71)" stroke-width="1.51"/><path d="M3587,5295L2924,780L498,3817Z" fill="rgb(36,54,63)" stroke="rgb(36,54,63)" stroke-width="1.51"/><path d="M2924,780L2408,-193L822,1474Z" fill="rgb(37,58,68)" stroke="rgb(37,58,68)" stroke-width="1.51"/><path d="M204,1278L-2577,365L-778,1814Z" fill="rgb(37,63,75)" stroke="rgb(37,63,75)" stroke-width="1.51"/><path d="M830,-2115L-2577,365L204,1278Z" fill="rgb(38,72,88)" stroke="rgb(38,72,88)" stroke-width="1.51"/><path d="M-1401,1886L-3614,2058L-2581,2778Z" fill="rgb(37,63,75)" stroke="rgb(37,63,75)" stroke-width="1.51"/><path d="M-979,4948L73,6152L-137,4577Z" fill="rgb(37,63,75)" stroke="rgb(37,63,75)" stroke-width="1.51"/><path d="M565,5293L1982,5958L962,4986Z" fill="rgb(37,58,69)" stroke="rgb(37,58,69)" stroke-width="1.51"/><path d="M-2577,365L-3614,2058L-1401,1886Z" fill="rgb(37,63,75)" stroke="rgb(37,63,75)" stroke-width="1.51"/><path d="M-3057,8640L-1488,7718L-979,4948Z" fill="rgb(37,63,75)" stroke="rgb(37,63,75)" stroke-width="1.51"/><path d="M-979,4948L-1488,7718L73,6152Z" fill="rgb(37,63,75)" stroke="rgb(37,63,75)" stroke-width="1.51"/><path d="M962,4986L3587,5295L498,3817Z" fill="rgb(37,56,66)" stroke="rgb(37,56,66)" stroke-width="1.51"/><path d="M73,6152L1982,5958L565,5293Z" fill="rgb(37,59,70)" stroke="rgb(37,59,70)" stroke-width="1.51"/><path d="M1982,5958L2339,5985L962,4986Z" fill="rgb(37,56,66)" stroke="rgb(37,56,66)" stroke-width="1.51"/><path d="M2352,6355L2339,5985L1982,5958Z" fill="rgb(36,54,63)" stroke="rgb(36,54,63)" stroke-width="1.51"/><path d="M3587,5295L4227,870L2924,780Z" fill="rgb(36,54,63)" stroke="rgb(36,54,63)" stroke-width="1.51"/><path d="M2924,780L4227,870L2408,-193Z" fill="rgb(37,58,69)" stroke="rgb(37,58,69)" stroke-width="1.51"/><path d="M2339,5985L3587,5295L962,4986Z" fill="rgb(36,54,63)" stroke="rgb(36,54,63)" stroke-width="1.51"/><path d="M-2577,365L-3691,185L-3614,2058Z" fill="rgb(37,64,77)" stroke="rgb(37,64,77)" stroke-width="1.51"/><path d="M-5276,-1207L-3691,185L-4744,-3380Z" fill="rgb(38,72,88)" stroke="rgb(38,72,88)" stroke-width="1.51"/><path d="M2339,5985L3023,6249L3587,5295Z" fill="rgb(36,54,63)" stroke="rgb(36,54,63)" stroke-width="1.51"/><path d="M2308,7261L2352,6355L1982,5958Z" fill="rgb(36,54,63)" stroke="rgb(36,54,63)" stroke-width="1.51"/><path d="M2408,-193L830,-2115L204,1278Z" fill="rgb(38,67,81)" stroke="rgb(38,67,81)" stroke-width="1.51"/><path d="M3048,-1867L830,-2115L2408,-193Z" fill="rgb(37,63,76)" stroke="rgb(37,63,76)" stroke-width="1.51"/><path d="M2352,6355L3023,6249L2339,5985Z" fill="rgb(36,54,63)" stroke="rgb(36,54,63)" stroke-width="1.51"/><path d="M4227,870L3048,-1867L2408,-193Z" fill="rgb(37,63,75)" stroke="rgb(37,63,75)" stroke-width="1.51"/><path d="M73,6152L2308,7261L1982,5958Z" fill="rgb(37,57,67)" stroke="rgb(37,57,67)" stroke-width="1.51"/><path d="M2352,6355L2308,7261L3023,6249Z" fill="rgb(36,54,63)" stroke="rgb(36,54,63)" stroke-width="1.51"/><path d="M3048,-1867L2787,-2319L830,-2115Z" fill="rgb(37,63,76)" stroke="rgb(37,63,76)" stroke-width="1.51"/><path d="M73,6152L-115,9545L2308,7261Z" fill="rgb(37,60,71)" stroke="rgb(37,60,71)" stroke-width="1.51"/><path d="M-3057,8640L-979,4948L-2581,2778Z" fill="rgb(37,63,75)" stroke="rgb(37,63,75)" stroke-width="1.51"/><path d="M-1488,7718L-1331,7771L73,6152Z" fill="rgb(37,63,75)" stroke="rgb(37,63,75)" stroke-width="1.51"/><path d="M4683,6706L4519,6263L3023,6249Z" fill="rgb(36,54,63)" stroke="rgb(36,54,63)" stroke-width="1.51"/><path d="M3023,6249L4519,6263L3587,5295Z" fill="rgb(36,54,63)" stroke="rgb(36,54,63)" stroke-width="1.51"/><path d="M6073,3378L5890,675L4227,870Z" fill="rgb(36,54,63)" stroke="rgb(36,54,63)" stroke-width="1.51"/><path d="M-3057,8640L-1882,8818L-1488,7718Z" fill="rgb(37,63,75)" stroke="rgb(37,63,75)" stroke-width="1.51"/><path d="M-3691,185L-5327,422L-3614,2058Z" fill="rgb(37,64,77)" stroke="rgb(37,64,77)" stroke-width="1.51"/><path d="M-5276,-1207L-5327,422L-3691,185Z" fill="rgb(38,72,88)" stroke="rgb(38,72,88)" stroke-width="1.51"/><path d="M4227,870L3832,-2428L3048,-1867Z" fill="rgb(37,63,75)" stroke="rgb(37,63,75)" stroke-width="1.51"/><path d="M3048,-1867L3832,-2428L2787,-2319Z" fill="rgb(37,63,75)" stroke="rgb(37,63,75)" stroke-width="1.51"/><path d="M6073,3378L4227,870L3587,5295Z" fill="rgb(36,54,63)" stroke="rgb(36,54,63)" stroke-width="1.51"/><path d="M6000,5326L6073,3378L3587,5295Z" fill="rgb(36,54,63)" stroke="rgb(36,54,63)" stroke-width="1.51"/><path d="M830,-2115L-1718,-3902L-2577,365Z" fill="rgb(38,72,88)" stroke="rgb(38,72,88)" stroke-width="1.51"/><path d="M2787,-2319L1600,-3448L830,-2115Z" fill="rgb(38,65,78)" stroke="rgb(38,65,78)" stroke-width="1.51"/><path d="M2787,-2319L2549,-4248L1600,-3448Z" fill="rgb(37,63,75)" stroke="rgb(37,63,75)" stroke-width="1.51"/><path d="M6016,-1454L3832,-2428L4227,870Z" fill="rgb(37,63,75)" stroke="rgb(37,63,75)" stroke-width="1.51"/><path d="M-5327,422L-5700,679L-3614,2058Z" fill="rgb(37,63,75)" stroke="rgb(37,63,75)" stroke-width="1.51"/><path d="M4519,6263L6000,5326L3587,5295Z" fill="rgb(36,54,63)" stroke="rgb(36,54,63)" stroke-width="1.51"/><path d="M2308,7261L4683,6706L3023,6249Z" fill="rgb(36,54,63)" stroke="rgb(36,54,63)" stroke-width="1.51"/><path d="M5890,675L6016,-1454L4227,870Z" fill="rgb(37,62,75)" stroke="rgb(37,62,75)" stroke-width="1.51"/><path d="M6495,3023L6240,842L5890,675Z" fill="rgb(36,54,63)" stroke="rgb(36,54,63)" stroke-width="1.51"/><path d="M1600,-3448L112,-3880L830,-2115Z" fill="rgb(38,68,83)" stroke="rgb(38,68,83)" stroke-width="1.51"/><path d="M-5327,422L-5276,-1207L-5700,679Z" fill="rgb(38,72,88)" stroke="rgb(38,72,88)" stroke-width="1.51"/><path d="M6073,3378L6495,3023L5890,675Z" fill="rgb(36,54,63)" stroke="rgb(36,54,63)" stroke-width="1.51"/><path d="M6917,4761L6495,3023L6073,3378Z" fill="rgb(36,54,63)" stroke="rgb(36,54,63)" stroke-width="1.51"/><path d="M5985,6214L6000,5326L4519,6263Z" fill="rgb(36,54,63)" stroke="rgb(36,54,63)" stroke-width="1.51"/><path d="M-1718,-3902L-3691,185L-2577,365Z" fill="rgb(38,72,88)" stroke="rgb(38,72,88)" stroke-width="1.51"/><path d="M112,-3880L-1718,-3902L830,-2115Z" fill="rgb(38,72,88)" stroke="rgb(38,72,88)" stroke-width="1.51"/><path d="M-1488,7718L-1882,8818L-1331,7771Z" fill="rgb(37,63,75)" stroke="rgb(37,63,75)" stroke-width="1.51"/><path d="M-1331,7771L-115,9545L73,6152Z" fill="rgb(37,63,75)" stroke="rgb(37,63,75)" stroke-width="1.51"/><path d="M2308,7261L4912,8067L4683,6706Z" fill="rgb(36,54,63)" stroke="rgb(36,54,63)" stroke-width="1.51"/><path d="M-3057,8640L-2581,2778L-7289,6988Z" fill="rgb(37,63,75)" stroke="rgb(37,63,75)" stroke-width="1.51"/><path d="M6240,842L6016,-1454L5890,675Z" fill="rgb(37,63,75)" stroke="rgb(37,63,75)" stroke-width="1.51"/><path d="M6495,3023L6956,1346L6240,842Z" fill="rgb(36,54,63)" stroke="rgb(36,54,63)" stroke-width="1.51"/><path d="M7631,766L6956,1346L8501,2299Z" fill="rgb(36,54,63)" stroke="rgb(36,54,63)" stroke-width="1.51"/><path d="M6000,5326L6917,4761L6073,3378Z" fill="rgb(36,54,63)" stroke="rgb(36,54,63)" stroke-width="1.51"/><path d="M4683,6706L5985,6214L4519,6263Z" fill="rgb(36,54,63)" stroke="rgb(36,54,63)" stroke-width="1.51"/><path d="M1600,-3448L1054,-4491L112,-3880Z" fill="rgb(38,68,83)" stroke="rgb(38,68,83)" stroke-width="1.51"/><path d="M112,-3880L-376,-5376L-1718,-3902Z" fill="rgb(38,72,88)" stroke="rgb(38,72,88)" stroke-width="1.51"/><path d="M1489,-4840L1054,-4491L1600,-3448Z" fill="rgb(38,66,80)" stroke="rgb(38,66,80)" stroke-width="1.51"/><path d="M3171,-4271L2549,-4248L2787,-2319Z" fill="rgb(37,63,75)" stroke="rgb(37,63,75)" stroke-width="1.51"/><path d="M7611,557L6016,-1454L6240,842Z" fill="rgb(37,63,75)" stroke="rgb(37,63,75)" stroke-width="1.51"/><path d="M-7289,6988L-2581,2778L-3614,2058Z" fill="rgb(37,63,75)" stroke="rgb(37,63,75)" stroke-width="1.51"/><path d="M3171,-4271L2787,-2319L3832,-2428Z" fill="rgb(37,63,75)" stroke="rgb(37,63,75)" stroke-width="1.51"/><path d="M5985,6214L6917,4761L6000,5326Z" fill="rgb(36,54,63)" stroke="rgb(36,54,63)" stroke-width="1.51"/><path d="M-1882,8818L-115,9545L-1331,7771Z" fill="rgb(37,63,75)" stroke="rgb(37,63,75)" stroke-width="1.51"/><path d="M4683,6706L4912,8067L5985,6214Z" fill="rgb(36,54,63)" stroke="rgb(36,54,63)" stroke-width="1.51"/><path d="M-3537,9942L-115,9545L-1882,8818Z" fill="rgb(37,63,75)" stroke="rgb(37,63,75)" stroke-width="1.51"/><path d="M2549,-4248L1489,-4840L1600,-3448Z" fill="rgb(38,64,77)" stroke="rgb(38,64,77)" stroke-width="1.51"/><path d="M4921,-4095L3171,-4271L3832,-2428Z" fill="rgb(37,63,75)" stroke="rgb(37,63,75)" stroke-width="1.51"/><path d="M1736,-5529L1489,-4840L1764,-5543Z" fill="rgb(38,65,79)" stroke="rgb(38,65,79)" stroke-width="1.51"/><path d="M1054,-4491L-376,-5376L112,-3880Z" fill="rgb(38,71,86)" stroke="rgb(38,71,86)" stroke-width="1.51"/><path d="M5985,6214L7934,6055L6917,4761Z" fill="rgb(36,54,63)" stroke="rgb(36,54,63)" stroke-width="1.51"/><path d="M4941,8492L4912,8067L2308,7261Z" fill="rgb(36,54,63)" stroke="rgb(36,54,63)" stroke-width="1.51"/><path d="M6016,-1454L5743,-2491L3832,-2428Z" fill="rgb(37,63,75)" stroke="rgb(37,63,75)" stroke-width="1.51"/><path d="M7781,-1636L5743,-2491L6016,-1454Z" fill="rgb(37,63,75)" stroke="rgb(37,63,75)" stroke-width="1.51"/><path d="M-5138,-4300L-4744,-3380L-4074,-5172Z" fill="rgb(38,72,88)" stroke="rgb(38,72,88)" stroke-width="1.51"/><path d="M-1718,-3902L-4744,-3380L-3691,185Z" fill="rgb(38,72,88)" stroke="rgb(38,72,88)" stroke-width="1.51"/><path d="M6956,1346L7611,557L6240,842Z" fill="rgb(36,54,64)" stroke="rgb(36,54,64)" stroke-width="1.51"/><path d="M8501,2299L6956,1346L6495,3023Z" fill="rgb(36,54,63)" stroke="rgb(36,54,63)" stroke-width="1.51"/><path d="M7631,766L7611,557L6956,1346Z" fill="rgb(36,55,64)" stroke="rgb(36,55,64)" stroke-width="1.51"/><path d="M6892,8422L7934,6055L5985,6214Z" fill="rgb(36,54,63)" stroke="rgb(36,54,63)" stroke-width="1.51"/><path d="M3927,10139L4941,8492L2308,7261Z" fill="rgb(36,54,63)" stroke="rgb(36,54,63)" stroke-width="1.51"/><path d="M-5700,679L-7597,3077L-3614,2058Z" fill="rgb(37,63,75)" stroke="rgb(37,63,75)" stroke-width="1.51"/><path d="M-5276,-1207L-7348,509L-5700,679Z" fill="rgb(38,72,88)" stroke="rgb(38,72,88)" stroke-width="1.51"/><path d="M-8140,-957L-7348,509L-5276,-1207Z" fill="rgb(38,72,88)" stroke="rgb(38,72,88)" stroke-width="1.51"/><path d="M805,-5902L-376,-5376L1054,-4491Z" fill="rgb(38,70,85)" stroke="rgb(38,70,85)" stroke-width="1.51"/><path d="M-7348,509L-7597,3077L-5700,679Z" fill="rgb(37,63,75)" stroke="rgb(37,63,75)" stroke-width="1.51"/><path d="M5743,-2491L4921,-4095L3832,-2428Z" fill="rgb(37,63,75)" stroke="rgb(37,63,75)" stroke-width="1.51"/><path d="M1764,-5543L1489,-4840L2549,-4248Z" fill="rgb(37,64,77)" stroke="rgb(37,64,77)" stroke-width="1.51"/><path d="M1489,-4840L805,-5902L1054,-4491Z" fill="rgb(38,67,82)" stroke="rgb(38,67,82)" stroke-width="1.51"/><path d="M5749,-5821L4921,-4095L5743,-2491Z" fill="rgb(37,63,75)" stroke="rgb(37,63,75)" stroke-width="1.51"/><path d="M1764,-5543L2742,-6135L2149,-6075Z" fill="rgb(37,63,76)" stroke="rgb(37,63,76)" stroke-width="1.51"/><path d="M1736,-5529L805,-5902L1489,-4840Z" fill="rgb(38,66,80)" stroke="rgb(38,66,80)" stroke-width="1.51"/><path d="M1764,-5543L2549,-4248L2742,-6135Z" fill="rgb(37,63,75)" stroke="rgb(37,63,75)" stroke-width="1.51"/><path d="M9699,3426L8501,2299L6917,4761Z" fill="rgb(36,54,63)" stroke="rgb(36,54,63)" stroke-width="1.51"/><path d="M6917,4761L8501,2299L6495,3023Z" fill="rgb(36,54,63)" stroke="rgb(36,54,63)" stroke-width="1.51"/><path d="M7631,766L9226,375L7611,557Z" fill="rgb(37,58,68)" stroke="rgb(37,58,68)" stroke-width="1.51"/><path d="M-115,9545L2632,10369L2308,7261Z" fill="rgb(37,56,66)" stroke="rgb(37,56,66)" stroke-width="1.51"/><path d="M1764,-5543L805,-5902L1736,-5529Z" fill="rgb(38,66,80)" stroke="rgb(38,66,80)" stroke-width="1.51"/><path d="M-115,9545L2806,10661L2632,10369Z" fill="rgb(37,56,65)" stroke="rgb(37,56,65)" stroke-width="1.51"/><path d="M-3057,8640L-3537,9942L-1882,8818Z" fill="rgb(37,63,75)" stroke="rgb(37,63,75)" stroke-width="1.51"/><path d="M-3866,10098L-3537,9942L-3057,8640Z" fill="rgb(37,63,75)" stroke="rgb(37,63,75)" stroke-width="1.51"/><path d="M6414,8601L5985,6214L4912,8067Z" fill="rgb(36,54,63)" stroke="rgb(36,54,63)" stroke-width="1.51"/><path d="M-8262,-3564L-8140,-957L-5276,-1207Z" fill="rgb(38,72,88)" stroke="rgb(38,72,88)" stroke-width="1.51"/><path d="M-4074,-5172L-4744,-3380L-1718,-3902Z" fill="rgb(38,72,88)" stroke="rgb(38,72,88)" stroke-width="1.51"/><path d="M-4074,-5172L-1718,-3902L-2973,-6368Z" fill="rgb(38,72,88)" stroke="rgb(38,72,88)" stroke-width="1.51"/><path d="M2632,10369L3927,10139L2308,7261Z" fill="rgb(36,54,63)" stroke="rgb(36,54,63)" stroke-width="1.51"/><path d="M4941,8492L6414,8601L4912,8067Z" fill="rgb(36,54,63)" stroke="rgb(36,54,63)" stroke-width="1.51"/><path d="M9141,-1131L7781,-1636L7611,557Z" fill="rgb(37,63,75)" stroke="rgb(37,63,75)" stroke-width="1.51"/><path d="M7611,557L7781,-1636L6016,-1454Z" fill="rgb(37,63,75)" stroke="rgb(37,63,75)" stroke-width="1.51"/><path d="M2632,10369L2806,10661L3927,10139Z" fill="rgb(36,54,63)" stroke="rgb(36,54,63)" stroke-width="1.51"/><path d="M-3866,10098L2806,10661L-115,9545Z" fill="rgb(37,63,75)" stroke="rgb(37,63,75)" stroke-width="1.51"/><path d="M-5926,10474L-3866,10098L-3057,8640Z" fill="rgb(37,63,75)" stroke="rgb(37,63,75)" stroke-width="1.51"/><path d="M-3537,9942L-3866,10098L-115,9545Z" fill="rgb(37,63,75)" stroke="rgb(37,63,75)" stroke-width="1.51"/><path d="M-2973,-6368L-1718,-3902L-376,-5376Z" fill="rgb(38,72,88)" stroke="rgb(38,72,88)" stroke-width="1.51"/><path d="M2742,-6135L2549,-4248L3171,-4271Z" fill="rgb(37,63,75)" stroke="rgb(37,63,75)" stroke-width="1.51"/><path d="M1764,-5543L2149,-6075L805,-5902Z" fill="rgb(38,65,79)" stroke="rgb(38,65,79)" stroke-width="1.51"/><path d="M-7597,3077L-7289,6988L-3614,2058Z" fill="rgb(37,63,75)" stroke="rgb(37,63,75)" stroke-width="1.51"/><path d="M3927,10139L6414,8601L4941,8492Z" fill="rgb(36,54,63)" stroke="rgb(36,54,63)" stroke-width="1.51"/><path d="M2314,-7070L2742,-6135L4618,-7585Z" fill="rgb(37,63,75)" stroke="rgb(37,63,75)" stroke-width="1.51"/><path d="M4921,-4095L2742,-6135L3171,-4271Z" fill="rgb(37,63,75)" stroke="rgb(37,63,75)" stroke-width="1.51"/><path d="M-9219,2428L-8700,4192L-7597,3077Z" fill="rgb(37,63,75)" stroke="rgb(37,63,75)" stroke-width="1.51"/><path d="M-7597,3077L-8700,4192L-7289,6988Z" fill="rgb(37,63,75)" stroke="rgb(37,63,75)" stroke-width="1.51"/><path d="M-8262,-3564L-5276,-1207L-4744,-3380Z" fill="rgb(38,72,88)" stroke="rgb(38,72,88)" stroke-width="1.51"/><path d="M6414,8601L6892,8422L5985,6214Z" fill="rgb(36,54,63)" stroke="rgb(36,54,63)" stroke-width="1.51"/><path d="M3927,10139L6892,8422L6414,8601Z" fill="rgb(36,54,63)" stroke="rgb(36,54,63)" stroke-width="1.51"/><path d="M-9219,2428L-7597,3077L-7348,509Z" fill="rgb(37,63,75)" stroke="rgb(37,63,75)" stroke-width="1.51"/><path d="M8501,2299L9226,375L7631,766Z" fill="rgb(36,54,63)" stroke="rgb(36,54,63)" stroke-width="1.51"/><path d="M10241,2257L9226,375L8501,2299Z" fill="rgb(36,54,63)" stroke="rgb(36,54,63)" stroke-width="1.51"/><path d="M-850,-7024L805,-5902L866,-7886Z" fill="rgb(38,71,86)" stroke="rgb(38,71,86)" stroke-width="1.51"/><path d="M-850,-7024L-376,-5376L805,-5902Z" fill="rgb(38,72,88)" stroke="rgb(38,72,88)" stroke-width="1.51"/><path d="M-850,-7024L-2973,-6368L-376,-5376Z" fill="rgb(38,72,88)" stroke="rgb(38,72,88)" stroke-width="1.51"/><path d="M-4074,-5172L-5450,-6229L-5138,-4300Z" fill="rgb(38,72,88)" stroke="rgb(38,72,88)" stroke-width="1.51"/><path d="M7934,6055L8845,6051L6917,4761Z" fill="rgb(36,54,63)" stroke="rgb(36,54,63)" stroke-width="1.51"/><path d="M6892,8422L8845,6051L7934,6055Z" fill="rgb(36,54,63)" stroke="rgb(36,54,63)" stroke-width="1.51"/><path d="M-8140,-957L-9219,2428L-7348,509Z" fill="rgb(38,66,79)" stroke="rgb(38,66,79)" stroke-width="1.51"/><path d="M-9219,2428L-8977,4539L-8700,4192Z" fill="rgb(37,63,75)" stroke="rgb(37,63,75)" stroke-width="1.51"/><path d="M-8700,4192L-8977,4539L-7289,6988Z" fill="rgb(37,63,75)" stroke="rgb(37,63,75)" stroke-width="1.51"/><path d="M7781,-1636L8520,-2077L5743,-2491Z" fill="rgb(37,63,75)" stroke="rgb(37,63,75)" stroke-width="1.51"/><path d="M9141,-1131L8520,-2077L7781,-1636Z" fill="rgb(37,63,75)" stroke="rgb(37,63,75)" stroke-width="1.51"/><path d="M2314,-7070L805,-5902L2149,-6075Z" fill="rgb(38,65,78)" stroke="rgb(38,65,78)" stroke-width="1.51"/><path d="M10057,4755L9699,3426L6917,4761Z" fill="rgb(36,54,63)" stroke="rgb(36,54,63)" stroke-width="1.51"/><path d="M9226,375L9141,-1131L7611,557Z" fill="rgb(37,63,75)" stroke="rgb(37,63,75)" stroke-width="1.51"/><path d="M10095,-678L9141,-1131L9226,375Z" fill="rgb(37,63,75)" stroke="rgb(37,63,75)" stroke-width="1.51"/><path d="M2742,-6135L2314,-7070L2149,-6075Z" fill="rgb(37,63,75)" stroke="rgb(37,63,75)" stroke-width="1.51"/><path d="M5749,-5821L2742,-6135L4921,-4095Z" fill="rgb(37,63,75)" stroke="rgb(37,63,75)" stroke-width="1.51"/><path d="M9599,-4848L5749,-5821L5743,-2491Z" fill="rgb(37,63,75)" stroke="rgb(37,63,75)" stroke-width="1.51"/><path d="M9588,5988L9625,5694L8845,6051Z" fill="rgb(36,54,63)" stroke="rgb(36,54,63)" stroke-width="1.51"/><path d="M8845,6051L10057,4755L6917,4761Z" fill="rgb(36,54,63)" stroke="rgb(36,54,63)" stroke-width="1.51"/><path d="M10618,2090L10241,2257L10717,2532Z" fill="rgb(36,54,63)" stroke="rgb(36,54,63)" stroke-width="1.51"/><path d="M9699,3426L10241,2257L8501,2299Z" fill="rgb(36,54,63)" stroke="rgb(36,54,63)" stroke-width="1.51"/><path d="M9625,5694L10057,4755L8845,6051Z" fill="rgb(36,54,63)" stroke="rgb(36,54,63)" stroke-width="1.51"/><path d="M6892,8422L9588,5988L8845,6051Z" fill="rgb(36,54,63)" stroke="rgb(36,54,63)" stroke-width="1.51"/><path d="M-7289,6988L-5926,10474L-3057,8640Z" fill="rgb(37,63,75)" stroke="rgb(37,63,75)" stroke-width="1.51"/><path d="M-3866,10098L-5926,10474L2806,10661Z" fill="rgb(37,63,75)" stroke="rgb(37,63,75)" stroke-width="1.51"/><path d="M-7891,10055L-5926,10474L-7289,6988Z" fill="rgb(37,63,75)" stroke="rgb(37,63,75)" stroke-width="1.51"/><path d="M9588,5988L10057,4755L9625,5694Z" fill="rgb(36,54,63)" stroke="rgb(36,54,63)" stroke-width="1.51"/><path d="M10241,2257L10265,242L9226,375Z" fill="rgb(36,54,63)" stroke="rgb(36,54,63)" stroke-width="1.51"/><path d="M9141,-1131L9591,-2094L8520,-2077Z" fill="rgb(37,63,75)" stroke="rgb(37,63,75)" stroke-width="1.51"/><path d="M8520,-2077L9599,-4848L5743,-2491Z" fill="rgb(37,63,75)" stroke="rgb(37,63,75)" stroke-width="1.51"/><path d="M-5138,-4300L-8262,-3564L-4744,-3380Z" fill="rgb(38,72,88)" stroke="rgb(38,72,88)" stroke-width="1.51"/><path d="M-2973,-6368L-5450,-6229L-4074,-5172Z" fill="rgb(38,72,88)" stroke="rgb(38,72,88)" stroke-width="1.51"/><path d="M-4990,-8089L-5450,-6229L-2973,-6368Z" fill="rgb(38,72,88)" stroke="rgb(38,72,88)" stroke-width="1.51"/><path d="M2314,-7070L866,-7886L805,-5902Z" fill="rgb(38,66,80)" stroke="rgb(38,66,80)" stroke-width="1.51"/><path d="M-4417,-8628L-4990,-8089L-2973,-6368Z" fill="rgb(38,72,88)" stroke="rgb(38,72,88)" stroke-width="1.51"/><path d="M3048,-9178L866,-7886L2314,-7070Z" fill="rgb(37,64,76)" stroke="rgb(37,64,76)" stroke-width="1.51"/><path d="M10095,-678L9767,-1489L9141,-1131Z" fill="rgb(37,63,75)" stroke="rgb(37,63,75)" stroke-width="1.51"/><path d="M-5450,-6229L-8262,-3564L-5138,-4300Z" fill="rgb(38,72,88)" stroke="rgb(38,72,88)" stroke-width="1.51"/><path d="M-8140,-957L-8262,-3564L-9219,2428Z" fill="rgb(38,72,88)" stroke="rgb(38,72,88)" stroke-width="1.51"/><path d="M10265,242L10095,-678L9226,375Z" fill="rgb(37,63,75)" stroke="rgb(37,63,75)" stroke-width="1.51"/><path d="M10805,-1689L9591,-2094L9767,-1489Z" fill="rgb(37,63,75)" stroke="rgb(37,63,75)" stroke-width="1.51"/><path d="M9767,-1489L9591,-2094L9141,-1131Z" fill="rgb(37,63,75)" stroke="rgb(37,63,75)" stroke-width="1.51"/><path d="M10717,2532L10241,2257L9699,3426Z" fill="rgb(36,54,63)" stroke="rgb(36,54,63)" stroke-width="1.51"/><path d="M10241,2257L10618,2090L10265,242Z" fill="rgb(36,54,63)" stroke="rgb(36,54,63)" stroke-width="1.51"/><path d="M10265,242L10805,-1689L10095,-678Z" fill="rgb(37,63,75)" stroke="rgb(37,63,75)" stroke-width="1.51"/><path d="M11264,3652L10717,2532L9699,3426Z" fill="rgb(36,54,63)" stroke="rgb(36,54,63)" stroke-width="1.51"/><path d="M11799,-2344L10805,-1689L10265,242Z" fill="rgb(37,63,75)" stroke="rgb(37,63,75)" stroke-width="1.51"/><path d="M5137,-7591L4618,-7585L5749,-5821Z" fill="rgb(37,63,75)" stroke="rgb(37,63,75)" stroke-width="1.51"/><path d="M5749,-5821L4618,-7585L2742,-6135Z" fill="rgb(37,63,75)" stroke="rgb(37,63,75)" stroke-width="1.51"/><path d="M-9393,10098L-7891,10055L-7289,6988Z" fill="rgb(37,63,75)" stroke="rgb(37,63,75)" stroke-width="1.51"/><path d="M10057,4755L11264,3652L9699,3426Z" fill="rgb(36,54,63)" stroke="rgb(36,54,63)" stroke-width="1.51"/><path d="M10717,2532L11264,3652L10618,2090Z" fill="rgb(36,54,63)" stroke="rgb(36,54,63)" stroke-width="1.51"/><path d="M9588,5988L11264,3652L10057,4755Z" fill="rgb(36,54,63)" stroke="rgb(36,54,63)" stroke-width="1.51"/><path d="M4618,-7585L3048,-9178L2314,-7070Z" fill="rgb(37,63,75)" stroke="rgb(37,63,75)" stroke-width="1.51"/><path d="M7144,-8854L5137,-7591L5749,-5821Z" fill="rgb(37,63,75)" stroke="rgb(37,63,75)" stroke-width="1.51"/><path d="M9591,-2094L9599,-4848L8520,-2077Z" fill="rgb(37,63,75)" stroke="rgb(37,63,75)" stroke-width="1.51"/><path d="M10095,-678L10805,-1689L9767,-1489Z" fill="rgb(37,63,75)" stroke="rgb(37,63,75)" stroke-width="1.51"/><path d="M11799,-2344L10265,242L10618,2090Z" fill="rgb(37,63,75)" stroke="rgb(37,63,75)" stroke-width="1.51"/><path d="M-4417,-8628L-2973,-6368L-2727,-9378Z" fill="rgb(38,72,88)" stroke="rgb(38,72,88)" stroke-width="1.51"/><path d="M-5450,-6229L-8590,-7821L-8262,-3564Z" fill="rgb(38,72,88)" stroke="rgb(38,72,88)" stroke-width="1.51"/><path d="M10778,-4273L9599,-4848L9591,-2094Z" fill="rgb(37,63,75)" stroke="rgb(37,63,75)" stroke-width="1.51"/><path d="M-2727,-9378L-2973,-6368L-850,-7024Z" fill="rgb(38,72,88)" stroke="rgb(38,72,88)" stroke-width="1.51"/><path d="M5137,-7591L3048,-9178L4618,-7585Z" fill="rgb(37,63,75)" stroke="rgb(37,63,75)" stroke-width="1.51"/><path d="M7014,-10017L3048,-9178L5137,-7591Z" fill="rgb(37,63,75)" stroke="rgb(37,63,75)" stroke-width="1.51"/><path d="M-2727,-9378L-850,-7024L771,-9901Z" fill="rgb(38,72,88)" stroke="rgb(38,72,88)" stroke-width="1.51"/><path d="M9599,-4848L8762,-6027L5749,-5821Z" fill="rgb(37,63,75)" stroke="rgb(37,63,75)" stroke-width="1.51"/><path d="M771,-9901L-850,-7024L866,-7886Z" fill="rgb(38,71,86)" stroke="rgb(38,71,86)" stroke-width="1.51"/><path d="M10805,-1689L11262,-2865L9591,-2094Z" fill="rgb(37,63,75)" stroke="rgb(37,63,75)" stroke-width="1.51"/><path d="M9599,-4848L10425,-5792L8762,-6027Z" fill="rgb(37,63,75)" stroke="rgb(37,63,75)" stroke-width="1.51"/><path d="M11799,-2344L11262,-2865L10805,-1689Z" fill="rgb(37,63,75)" stroke="rgb(37,63,75)" stroke-width="1.51"/><path d="M-7891,10055L-9393,10098L-5926,10474Z" fill="rgb(37,63,75)" stroke="rgb(37,63,75)" stroke-width="1.51"/><path d="M-8977,4539L-9393,10098L-7289,6988Z" fill="rgb(37,63,75)" stroke="rgb(37,63,75)" stroke-width="1.51"/><path d="M-9219,2428L-9393,10098L-8977,4539Z" fill="rgb(37,63,75)" stroke="rgb(37,63,75)" stroke-width="1.51"/><path d="M3048,-9178L771,-9901L866,-7886Z" fill="rgb(38,66,79)" stroke="rgb(38,66,79)" stroke-width="1.51"/><path d="M-6352,-8470L-4990,-8089L-4417,-8628Z" fill="rgb(38,72,88)" stroke="rgb(38,72,88)" stroke-width="1.51"/><path d="M-6352,-8470L-6863,-7908L-4990,-8089Z" fill="rgb(38,72,88)" stroke="rgb(38,72,88)" stroke-width="1.51"/><path d="M-4990,-8089L-6863,-7908L-5450,-6229Z" fill="rgb(38,72,88)" stroke="rgb(38,72,88)" stroke-width="1.51"/><path d="M11262,-2865L10778,-4273L9591,-2094Z" fill="rgb(37,63,75)" stroke="rgb(37,63,75)" stroke-width="1.51"/><path d="M11262,-2865L11204,-5396L10778,-4273Z" fill="rgb(37,63,75)" stroke="rgb(37,63,75)" stroke-width="1.51"/><path d="M11264,3652L11799,-2344L10618,2090Z" fill="rgb(36,54,63)" stroke="rgb(36,54,63)" stroke-width="1.51"/><path d="M-2727,-9378L-6352,-8470L-4417,-8628Z" fill="rgb(38,72,88)" stroke="rgb(38,72,88)" stroke-width="1.51"/><path d="M10778,-4273L10425,-5792L9599,-4848Z" fill="rgb(37,63,75)" stroke="rgb(37,63,75)" stroke-width="1.51"/><path d="M8762,-6027L7144,-8854L5749,-5821Z" fill="rgb(37,63,75)" stroke="rgb(37,63,75)" stroke-width="1.51"/><path d="M11204,-5396L10425,-5792L10778,-4273Z" fill="rgb(37,63,75)" stroke="rgb(37,63,75)" stroke-width="1.51"/><path d="M9424,-9044L7144,-8854L8762,-6027Z" fill="rgb(37,63,75)" stroke="rgb(37,63,75)" stroke-width="1.51"/><path d="M3048,-9178L7014,-10017L771,-9901Z" fill="rgb(37,63,75)" stroke="rgb(37,63,75)" stroke-width="1.51"/><path d="M-6352,-8470L-8590,-7821L-6863,-7908Z" fill="rgb(38,72,88)" stroke="rgb(38,72,88)" stroke-width="1.51"/><path d="M-6863,-7908L-8590,-7821L-5450,-6229Z" fill="rgb(38,72,88)" stroke="rgb(38,72,88)" stroke-width="1.51"/><path d="M-8262,-3564L-8590,-7821L-9219,2428Z" fill="rgb(38,72,88)" stroke="rgb(38,72,88)" stroke-width="1.51"/><path d="M9424,-9044L7014,-10017L7144,-8854Z" fill="rgb(37,63,75)" stroke="rgb(37,63,75)" stroke-width="1.51"/><path d="M11799,-2344L11204,-5396L11262,-2865Z" fill="rgb(37,63,75)" stroke="rgb(37,63,75)" stroke-width="1.51"/><path d="M10193,-8226L8762,-6027L10425,-5792Z" fill="rgb(37,63,75)" stroke="rgb(37,63,75)" stroke-width="1.51"/><path d="M7144,-8854L7014,-10017L5137,-7591Z" fill="rgb(37,63,75)" stroke="rgb(37,63,75)" stroke-width="1.51"/><path d="M10921,-8489L10193,-8226L10425,-5792Z" fill="rgb(37,63,75)" stroke="rgb(37,63,75)" stroke-width="1.51"/><path d="M10193,-8226L9424,-9044L8762,-6027Z" fill="rgb(37,63,75)" stroke="rgb(37,63,75)" stroke-width="1.51"/><path d="M10193,-8226L10921,-8489L9424,-9044Z" fill="rgb(37,63,75)" stroke="rgb(37,63,75)" stroke-width="1.51"/><path d="M9424,-9044L10921,-8489L7014,-10017Z" fill="rgb(37,63,75)" stroke="rgb(37,63,75)" stroke-width="1.51"/><path d="M11204,-5396L10921,-8489L10425,-5792Z" fill="rgb(37,63,75)" stroke="rgb(37,63,75)" stroke-width="1.51"/><path d="M11799,-2344L10921,-8489L11204,-5396Z" fill="rgb(37,63,75)" stroke="rgb(37,63,75)" stroke-width="1.51"/></svg>